<svg xmlns="http://www.w3.org/2000/svg" xmlns:xlink="http://www.w3.org/1999/xlink" width="1998.14" height="366.5" viewBox="0 0 528.67 96.97"><defs><linearGradient id="a"><stop stop-color="#0fc" offset="0"/><stop offset=".5" stop-color="#5858b5"/><stop stop-color="#ff0050" offset="1"/></linearGradient><linearGradient id="b"><stop offset="0" stop-color="#0fc"/><stop offset="1" stop-color="#ff0050"/></linearGradient><linearGradient xlink:href="#a" id="c" gradientUnits="userSpaceOnUse" x1="-67.32" y1="142.19" x2="471.85" y2="142.19" gradientTransform="matrix(.99999 0 0 .99999 62.73 157.9)"/></defs><path style="line-height:1.25;-inkscape-font-specification:Hitchhiker" d="M516.88 288.93a17.64 17.64 0 00-7.54-1.48c-2.69 0-5.08.28-7.16.84a24.7 24.7 0 00-5.48 2.13 21.18 21.18 0 00-6.7 6.02 22.66 22.66 0 00-3.52 7.01 83.9 83.9 0 00-1.18 5.09 40.32 40.32 0 00-8.66 4.28l-2.05 1.45.68-3.58c.61-3.35.81-6.45.61-9.3-.2-2.9-.73-5.38-1.6-7.46a11.56 11.56 0 00-3.35-4.96 7.48 7.48 0 00-5.03-1.83c-2.03 0-4.01.66-5.94 1.98a21.63 21.63 0 00-5.34 5.41 12.9 12.9 0 00-3.43-5.4 7.71 7.71 0 00-5.33-1.99c-1.17 0-2.34.23-3.5.69a12.66 12.66 0 00-3.36 1.98l.3-1.52h-7.08l-3.96 22.4-.16.84-3.35 19.12h7.09l3.35-19.12.15-.84a37.65 37.65 0 011.83-6.7 35.36 35.36 0 012.52-5.19 15.1 15.1 0 012.66-3.35c.92-.81 1.68-1.22 2.29-1.22.66 0 1.3.4 1.9 1.22a9.4 9.4 0 011.53 3.35 21 21 0 01.68 5.18c.1 1.98-.07 4.22-.53 6.7l-3.5 19.97h7.08l3.5-19.96a37.65 37.65 0 011.84-6.7 35.36 35.36 0 012.51-5.19 15.1 15.1 0 012.67-3.35c.91-.81 1.7-1.22 2.36-1.22.66 0 1.3.4 1.9 1.22a9.4 9.4 0 011.53 3.35 21 21 0 01.69 5.18c.1 1.99-.08 4.22-.54 6.71l-3.5 19.96h7c.41-2.23 1.12-4.19 2.14-5.86a17.75 17.75 0 013.5-4.35 22.64 22.64 0 014.12-3.04 28.7 28.7 0 013.5-1.73 16.34 16.34 0 003.82 8.66 16.1 16.1 0 006.18 4.72c2.44 1.07 5.1 1.6 8 1.6 7.97 0 15.37-2.82 22.17-8.45a38.58 38.58 0 004.12-3.97 50.63 50.63 0 003.05-3.58c.86-1.12 1.6-2.61 2.2-4.5l-4.87-2.2-.69 1.14c-.35.6-.86 1.37-1.52 2.29-.66.86-1.5 1.85-2.51 2.97a30.22 30.22 0 01-3.43 3.2c-5.34 4.42-11.15 6.63-17.45 6.63-2.04 0-3.89-.38-5.57-1.15a11.74 11.74 0 01-4.26-3.27 12.01 12.01 0 01-2.82-7.47h32.46l.53-3.2a26.43 26.43 0 00.46-5.18c0-1.17-.1-2.39-.3-3.66-.2-1.27-.54-2.54-1-3.81-1.38-3.56-3.62-6.06-6.71-7.5zm-3.86 5.93l.52.28a8.58 8.58 0 013.12 3.05 9.48 9.48 0 011.45 3.89c.2 1.37.28 2.61.23 3.73h-25.99a20.67 20.67 0 012.82-6.32c2.6-3.71 6.94-5.57 13.03-5.57 1.96 0 3.56.32 4.82.94zm-133.76-6.06l-.45-.21a19.16 19.16 0 00-8.08-1.68c-2.95 0-5.84.56-8.69 1.68a28.44 28.44 0 00-13.94 11.81 26.58 26.58 0 00-3.13 8.38l-.02.16c-.46.18-.94.38-1.44.6a27.5 27.5 0 00-5.5 3.13l-1.6 1.14.62-3.12c.56-3.15.53-6.12-.08-8.92a18.45 18.45 0 00-3.35-7.62 16.18 16.18 0 00-6.25-5.18 17.8 17.8 0 00-8.08-1.83c-4.21 0-8.28 1.17-12.19 3.5h-4.8l-3.02 17.26a37.43 37.43 0 01-15.4 9.72 25.28 25.28 0 003.35-8.84c.56-2.94.51-5.74-.15-8.38a18.2 18.2 0 00-3.5-7.09 16.74 16.74 0 00-6.25-4.72 19.16 19.16 0 00-8.08-1.68c-2.95 0-5.84.56-8.69 1.68a28.44 28.44 0 00-13.94 11.81 26.58 26.58 0 00-3.13 8.38c-.5 2.95-.45 5.74.16 8.38.66 2.65 1.83 5 3.5 7.09a17.5 17.5 0 006.25 4.8c2.49 1.07 5.2 1.6 8.15 1.6 2.75 0 5.41-.46 8-1.37 2.6-.91 5.03-2.26 7.32-4.04 1.07-.05 2.54-.23 4.42-.53 1.93-.3 4.11-.94 6.55-1.9a49.27 49.27 0 008.08-4.35c.58-.39 1.16-.82 1.73-1.28l-2.36 13.47h7.09l5.71-32.84a17.97 17.97 0 014.8-2.67c1.73-.6 3.46-.91 5.19-.91a11.76 11.76 0 019.52 4.72c2.39 3.2 3.2 7.11 2.44 11.74l-3.5 19.96h7c.41-2.23 1.07-4.19 1.98-5.87.97-1.67 2.04-3.1 3.2-4.26a18.46 18.46 0 013.82-2.97c.84-.53 1.65-.97 2.41-1.34.06.32.12.64.2.95.66 2.65 1.83 5 3.5 7.1a17.49 17.49 0 006.25 4.8c2.49 1.06 5.2 1.6 8.15 1.6 2.75 0 5.41-.47 8-1.38 2.6-.91 5.03-2.26 7.32-4.04 1.07-.05 2.54-.23 4.42-.53 1.93-.3 4.12-.94 6.55-1.9a49.26 49.26 0 008.08-4.35c2.9-1.93 5.61-4.72 8.15-8.38l-3.73-3.28c-3.1 3.3-6.07 5.77-8.91 7.4a37.61 37.61 0 01-7.55 3.42 25.28 25.28 0 003.35-8.84c.56-2.94.51-5.74-.15-8.38a18.2 18.2 0 00-3.5-7.09 16.74 16.74 0 00-5.8-4.51zm-4.01 5.8c1.66.74 3.1 1.86 4.32 3.36a12.93 12.93 0 012.44 4.96c.5 1.82.56 3.78.15 5.86a16.47 16.47 0 01-2.2 5.87 19.25 19.25 0 01-4.2 4.95 19.13 19.13 0 01-5.56 3.36 16.25 16.25 0 01-6.02 1.14 14 14 0 01-5.72-1.14 11.27 11.27 0 01-4.34-3.36c-2.44-3-3.3-6.6-2.6-10.82a18.65 18.65 0 016.4-10.82 19.13 19.13 0 015.57-3.35 16.85 16.85 0 016.1-1.14c2.1 0 4 .37 5.66 1.12zm40.42 19.8a4.4 4.4 0 00-1.83-.36c-1.32 0-2.56.48-3.73 1.45a5.97 5.97 0 00-2.06 3.5 3.91 3.91 0 00.84 3.43 3.98 3.98 0 003.2 1.45c1.37 0 2.61-.48 3.73-1.45a5.94 5.94 0 002.06-3.43 4.03 4.03 0 00-.84-3.5 3.65 3.65 0 00-1.37-1.09zM273.74 294.6c1.67.75 3.11 1.87 4.33 3.37a12.93 12.93 0 012.44 4.96c.5 1.82.56 3.78.15 5.86a16.47 16.47 0 01-2.21 5.87 19.25 19.25 0 01-4.2 4.95 19.13 19.13 0 01-5.55 3.36 16.25 16.25 0 01-6.02 1.14 14 14 0 01-5.72-1.14 11.26 11.26 0 01-4.34-3.36c-2.44-3-3.3-6.6-2.6-10.82a18.65 18.65 0 016.4-10.82 19.13 19.13 0 015.57-3.35 16.85 16.85 0 016.1-1.14c2.1 0 4 .37 5.65 1.12zm-28.73-8.29c-3.5 0-6.84.33-9.99 1-3.1.65-5.89 1.57-8.38 2.74v-.16h-6.7l-3.79 20.47a32.6 32.6 0 01-5.26 3.84 37.61 37.61 0 01-7.55 3.43 25.28 25.28 0 003.36-8.84c.56-2.94.5-5.74-.15-8.38a18.2 18.2 0 00-3.51-7.09 16.74 16.74 0 00-6.25-4.72 19.16 19.16 0 00-8.08-1.68c-2.94 0-5.84.56-8.68 1.68a28.44 28.44 0 00-13.94 11.81 26.66 26.66 0 00-2.8 6.88l-1.74 1.12a498.86 498.86 0 00-6.32 4.04 45.54 45.54 0 00-3.89 2.9l.61-3.43c.81-4.58.86-8.61.15-12.12-.66-3.56-1.93-6.2-3.8-7.93.4-.25.8-.53 1.21-.83.4-.3.79-.64 1.15-1a90.88 90.88 0 003.73-3.27 35.1 35.1 0 003.5-3.89c1.07-1.42 1.8-2.69 2.21-3.8.41-1.18.61-2.2.61-3.05a5.1 5.1 0 00-.45-2.29 5.8 5.8 0 00-5.64-3.73c-1.17 0-2.36.22-3.58.68-1.17.4-2.37 1-3.59 1.75a44.88 44.88 0 00-3.58 2.44c-1.16.92-2.3 1.83-3.43 2.75l-.68.68c-.2.15-.43.36-.69.61l4.12-23.16h-6.63l-9.18 52.13a37.48 37.48 0 01-7.87 6.31 37.61 37.61 0 01-7.54 3.43 25.28 25.28 0 003.35-8.84c.56-2.95.5-5.74-.15-8.38a18.2 18.2 0 00-3.5-7.09 16.74 16.74 0 00-6.26-4.72 19.16 19.16 0 00-8.07-1.68c-2.95 0-5.84.56-8.69 1.68a28.44 28.44 0 00-13.94 11.81 26.57 26.57 0 00-3.13 8.38c-.5 2.95-.46 5.74.15 8.38a18.24 18.24 0 002.85 6.22l-3.78 2.43a45.52 45.52 0 00-3.89 2.9 27.35 27.35 0 00.39-3.47l.01-.56v-.56l-.01-.56a24.72 24.72 0 00-.18-2.18v-.03c-.1-.78-.24-1.54-.43-2.29a16.2 16.2 0 00-3.43-6.85 15.72 15.72 0 00-3.35-3.05c.81-.4 1.57-.86 2.28-1.37l2.14-1.68a25.72 25.72 0 005.86-6.86c1.53-2.59 2.54-5.3 3.05-8.15l3.2-18.14a16.57 16.57 0 012.14-5.63 19.5 19.5 0 014.03-4.88c3.46-2.9 7.22-4.34 11.28-4.34l1.15-6.4c-2.9 0-5.72.53-8.46 1.6a25.83 25.83 0 00-7.62 4.64A26.47 26.47 0 0073 264.9a24.6 24.6 0 00-2.97 8.07l-3.2 18.14a17.37 17.37 0 01-2.13 5.71 20.1 20.1 0 01-4.04 4.8 16.76 16.76 0 01-8.08 3.97l8.92-50.67h-6.33a16.48 16.48 0 01-2.2 5.71 19.32 19.32 0 01-4.12 4.8 16.86 16.86 0 01-11.28 4.34l-1.07 6.4c2.85 0 5.62-.5 8.31-1.52 2.74-1.07 5.3-2.6 7.7-4.57l-6.33 35.89H31.26c-2.85 0-5.64.53-8.39 1.6a27.93 27.93 0 00-7.77 4.65 26 26 0 00-5.86 6.85 25.93 25.93 0 00-3.05 8.16c-.46 2.9-.38 5.61.23 8.15a16.2 16.2 0 003.42 6.86 15.91 15.91 0 006.02 4.65c2.4 1.06 5 1.6 7.85 1.6 2.9 0 5.72-.54 8.46-1.6a27.93 27.93 0 007.77-4.65 25.4 25.4 0 005.72-6.86 23.67 23.67 0 003.05-8.15l2.59-14.56c2.8.61 5.03 1.96 6.7 4.04l.22.3c.35.51.65 1.05.9 1.6.93 2 1.24 4.27 1.14 6.73a24.38 24.38 0 01-.36 3.38l-3.5 19.96h7l.84-4.65a17.73 17.73 0 011.98-5.71 27.51 27.51 0 013.28-4.8 29.23 29.23 0 013.81-3.73 49.32 49.32 0 014.4-3.07c1.15.93 2.4 1.71 3.77 2.34 2.5 1.07 5.21 1.6 8.16 1.6 2.74 0 5.4-.46 8-1.37 2.59-.91 5.03-2.26 7.31-4.04 1.07-.05 2.54-.23 4.42-.53 1.93-.3 4.12-.94 6.56-1.9a49.26 49.26 0 008.07-4.35c.6-.4 1.17-.82 1.74-1.28l-2.37 13.47H130l3.28-18.74a31.32 31.32 0 014.04-11.13c.86-1.37 1.7-2.41 2.51-3.12.82-.76 1.53-1.15 2.14-1.15.6 0 1.19.39 1.75 1.15.6.7 1.1 1.75 1.45 3.12.4 1.32.63 2.95.68 4.88.1 1.88-.05 3.96-.45 6.25l-3.28 18.74h6.55a17.74 17.74 0 011.98-5.71 27.51 27.51 0 013.28-4.8 29.22 29.22 0 013.81-3.74 49.33 49.33 0 013.73-2.66l1.14-.68c.03 1.41.2 2.78.5 4.1.66 2.65 1.83 5 3.5 7.1a17.5 17.5 0 006.25 4.8c2.5 1.06 5.21 1.6 8.16 1.6 2.74 0 5.4-.46 8-1.38 2.59-.91 5.03-2.26 7.31-4.04 1.07-.05 2.54-.23 4.42-.53 1.93-.3 4.12-.94 6.56-1.9 2.24-.92 4.66-2.2 7.24-3.82l-2.16 11.66h6.7l3.58-19.37.87-1.2-.56-.49 1.76-9.5c.15-.65.7-1.36 1.67-2.13a17.4 17.4 0 014.04-2.13 35.51 35.51 0 015.87-1.68c2.28-.45 4.75-.68 7.39-.68zm-51.78 8.29c1.66.75 3.1 1.87 4.32 3.37a12.93 12.93 0 012.44 4.95c.5 1.83.56 3.79.15 5.87a16.47 16.47 0 01-2.2 5.87 19.25 19.25 0 01-4.2 4.95 19.13 19.13 0 01-5.56 3.35 16.25 16.25 0 01-6.02 1.15 14 14 0 01-5.71-1.15 11.26 11.26 0 01-4.35-3.35c-2.44-3-3.3-6.6-2.59-10.82a18.65 18.65 0 016.4-10.82 19.13 19.13 0 015.56-3.35 16.85 16.85 0 016.1-1.14c2.1 0 4 .37 5.66 1.12zm-39.5-17.93c.05.03.1.07.12.12.2.25.16.68-.15 1.3-.3.6-.6 1.08-.91 1.44a26.67 26.67 0 01-2.9 3.05 133.78 133.78 0 01-3.05 2.82 17.07 17.07 0 01-3.8 2.51 20.54 20.54 0 01-4.04 1.53 20.1 20.1 0 015.25-7.17 69.82 69.82 0 013.81-2.97 21.07 21.07 0 012.67-1.67 7.3 7.3 0 012.74-1c.1 0 .19.02.25.04zm-51.88 17.93c1.66.75 3.1 1.87 4.33 3.37a12.93 12.93 0 012.43 4.95c.51 1.83.56 3.79.16 5.87a16.48 16.48 0 01-2.21 5.87 19.25 19.25 0 01-4.2 4.95 19.13 19.13 0 01-5.56 3.35 16.25 16.25 0 01-6.02 1.15 14 14 0 01-5.71-1.15 11.27 11.27 0 01-4.35-3.35c-2.43-3-3.3-6.6-2.59-10.82a18.65 18.65 0 016.4-10.82 19.13 19.13 0 015.57-3.35 16.84 16.84 0 016.1-1.15c2.1 0 3.99.38 5.65 1.13zm-56.8 17.77l-2.67 14.86a16.57 16.57 0 01-2.13 5.64 18.78 18.78 0 01-4.12 4.87 16.75 16.75 0 01-5.4 3.2 15.86 15.86 0 01-5.87 1.15c-4.07 0-7.32-1.45-9.76-4.35a12.27 12.27 0 01-2.44-4.88 14 14 0 01-.07-5.63c.4-1.98 1.12-3.86 2.13-5.64a18.78 18.78 0 014.12-4.88 16.96 16.96 0 015.33-3.2 16.45 16.45 0 015.94-1.14z" letter-spacing="0" fill="url(#c)" transform="translate(-5.9 -251.7)" font-weight="400" font-size="76.2" word-spacing="0" font-family="Hitchhiker"/></svg>