<?xml version="1.0" encoding="UTF-8" standalone="no"?>
<svg
   xmlns:dc="http://purl.org/dc/elements/1.1/"
   xmlns:cc="http://creativecommons.org/ns#"
   xmlns:rdf="http://www.w3.org/1999/02/22-rdf-syntax-ns#"
   xmlns:svg="http://www.w3.org/2000/svg"
   xmlns="http://www.w3.org/2000/svg"
   xmlns:xlink="http://www.w3.org/1999/xlink"
   xmlns:sodipodi="http://sodipodi.sourceforge.net/DTD/sodipodi-0.dtd"
   xmlns:inkscape="http://www.inkscape.org/namespaces/inkscape"
   width="1998.1368"
   height="366.49524"
   viewBox="0 0 528.67369 96.968533"
   version="1.1"
   id="svg1005"
   sodipodi:docname="logo-script-white.svg"
   inkscape:version="0.92.4 (5da689c313, 2019-01-14)">
  <metadata
     id="metadata1009">
    <rdf:RDF>
      <cc:Work
         rdf:about="">
        <dc:format>image/svg+xml</dc:format>
        <dc:type
           rdf:resource="http://purl.org/dc/dcmitype/StillImage" />
        <dc:title></dc:title>
      </cc:Work>
    </rdf:RDF>
  </metadata>
  <sodipodi:namedview
     pagecolor="#ffffff"
     bordercolor="#666666"
     borderopacity="1"
     objecttolerance="10"
     gridtolerance="10"
     guidetolerance="10"
     inkscape:pageopacity="0"
     inkscape:pageshadow="2"
     inkscape:window-width="1858"
     inkscape:window-height="1057"
     id="namedview1007"
     showgrid="false"
     inkscape:zoom="0.3270369"
     inkscape:cx="749.10829"
     inkscape:cy="276.51277"
     inkscape:window-x="54"
     inkscape:window-y="-8"
     inkscape:window-maximized="1"
     inkscape:current-layer="g1003"
     inkscape:snap-bbox="true"
     inkscape:bbox-paths="true"
     inkscape:bbox-nodes="true"
     inkscape:pagecheckerboard="true"
     fit-margin-top="0"
     fit-margin-left="0"
     fit-margin-right="0"
     fit-margin-bottom="0"
     inkscape:snap-page="false"
     inkscape:snap-smooth-nodes="true"
     inkscape:snap-midpoints="true"
     inkscape:object-paths="true"
     inkscape:snap-intersection-paths="true"
     inkscape:snap-center="true" />
  <defs
     id="defs979">
    <linearGradient
       id="linearGradient1210">
      <stop
         id="stop1206"
         stop-color="#0fc"
         offset="0" />
      <stop
         offset="0.5"
         stop-color="#0fc"
         id="stop1212"
         style="stop-color:#5858b5;stop-opacity:1" />
      <stop
         id="stop1208"
         stop-color="#ff0050"
         offset="1" />
    </linearGradient>
    <linearGradient
       id="a">
      <stop
         offset="0"
         stop-color="#0fc"
         id="stop963" />
      <stop
         offset="1"
         stop-color="#ff0050"
         id="stop965" />
    </linearGradient>
    <linearGradient
       xlink:href="#linearGradient1210"
       id="b"
       gradientUnits="userSpaceOnUse"
       x1="-67.324097"
       y1="142.19197"
       x2="471.84549"
       y2="142.19197"
       gradientTransform="matrix(0.99998883,7.8693901e-6,-7.8693901e-6,0.99998883,62.728638,157.89949)" />
    <linearGradient
       xlink:href="#a"
       id="c"
       gradientUnits="userSpaceOnUse"
       x1="-67.324097"
       y1="142.19197"
       x2="471.84549"
       y2="142.19197"
       gradientTransform="rotate(-25)" />
    <linearGradient
       xlink:href="#a"
       id="d"
       gradientUnits="userSpaceOnUse"
       x1="-67.324097"
       y1="142.19197"
       x2="471.84549"
       y2="142.19197"
       gradientTransform="rotate(-25)" />
    <linearGradient
       xlink:href="#a"
       id="e"
       gradientUnits="userSpaceOnUse"
       x1="-67.324097"
       y1="142.19197"
       x2="471.84549"
       y2="142.19197"
       gradientTransform="rotate(-25)" />
    <linearGradient
       xlink:href="#a"
       id="f"
       gradientUnits="userSpaceOnUse"
       x1="-67.324097"
       y1="142.19197"
       x2="471.84549"
       y2="142.19197"
       gradientTransform="rotate(-25)" />
    <linearGradient
       xlink:href="#a"
       id="g"
       gradientUnits="userSpaceOnUse"
       x1="-67.324097"
       y1="142.19197"
       x2="471.84549"
       y2="142.19197"
       gradientTransform="rotate(-25)" />
    <linearGradient
       xlink:href="#a"
       id="h"
       gradientUnits="userSpaceOnUse"
       x1="-67.324097"
       y1="142.19197"
       x2="471.84549"
       y2="142.19197"
       gradientTransform="rotate(-25)" />
    <linearGradient
       xlink:href="#a"
       id="i"
       gradientUnits="userSpaceOnUse"
       x1="-67.324097"
       y1="142.19197"
       x2="471.84549"
       y2="142.19197"
       gradientTransform="rotate(-25)" />
    <linearGradient
       xlink:href="#a"
       id="j"
       gradientUnits="userSpaceOnUse"
       x1="-67.324097"
       y1="142.19197"
       x2="471.84549"
       y2="142.19197"
       gradientTransform="rotate(-25)" />
    <linearGradient
       xlink:href="#a"
       id="k"
       gradientUnits="userSpaceOnUse"
       x1="-67.324097"
       y1="142.19197"
       x2="471.84549"
       y2="142.19197"
       gradientTransform="rotate(-25)" />
    <linearGradient
       xlink:href="#a"
       id="l"
       gradientUnits="userSpaceOnUse"
       x1="-67.324097"
       y1="142.19197"
       x2="471.84549"
       y2="142.19197"
       gradientTransform="rotate(-25)" />
  </defs>
  <g
     font-weight="400"
     font-size="76.19999695px"
     word-spacing="0"
     id="g1003"
     style="font-weight:400;font-size:76.19999695px;font-family:Hitchhiker;word-spacing:0"
     transform="translate(-5.8927461,-251.70438)">
    <path
       style="line-height:1.25;-inkscape-font-specification:Hitchhiker;letter-spacing:-0.00264583px;fill:#f0f0f0;stroke-width:0.26458001;fill-opacity:1"
       d="m 516.87937,288.93244 c -2.11343,-0.98935 -4.62516,-1.48441 -7.53506,-1.48444 -2.69237,7e-5 -5.07968,0.27957 -7.16249,0.83836 -2.08281,0.55878 -3.91155,1.2701 -5.48634,2.1337 -1.52401,0.86358 -2.84521,1.82867 -3.96283,2.89545 -1.1176,1.06679 -2.03184,2.10788 -2.74304,3.12388 -1.67643,2.33678 -2.84484,4.67385 -3.50525,7.01064 -0.53662,2.05704 -0.92676,3.73848 -1.18786,5.08695 -0.73755,0.25782 -1.53462,0.56469 -2.40436,0.93264 -1.26997,0.508 -2.61646,1.16855 -4.03885,1.98134 -0.76201,0.4064 -1.49825,0.8639 -2.20945,1.37189 -0.66041,0.4572 -1.34641,0.93929 -2.05762,1.44727 l 0.68592,-3.58139 c 0.60964,-3.35277 0.81255,-6.45134 0.60935,-9.29614 -0.20315,-2.8956 -0.7363,-5.38463 -1.5999,-7.46744 -0.81277,-2.13359 -1.93038,-3.78482 -3.35276,-4.95324 -1.42238,-1.21919 -3.09869,-1.82911 -5.0291,-1.8291 -2.03201,-5e-5 -4.01347,0.66056 -5.94387,1.98135 -1.93042,1.32078 -3.70837,3.12435 -5.33398,5.41035 -0.81277,-2.28601 -1.95541,-4.08972 -3.4286,-5.41052 -1.4732,-1.32083 -3.25123,-1.98103 -5.33405,-1.98105 -1.16841,2.4e-4 -2.33689,0.22833 -3.50529,0.68551 -1.16841,0.4572 -2.28614,1.11774 -3.35295,1.98135 l 0.30472,-1.52401 -7.08623,-3e-5 -3.96264,22.40285 -0.15258,0.83831 -3.3528,19.12637 7.08644,3e-5 3.35327,-19.12618 0.15188,-0.83805 c 0.45723,-2.48921 1.06711,-4.72427 1.82914,-6.70548 0.81284,-2.03198 1.65074,-3.75927 2.51435,-5.18167 0.91443,-1.4732 1.80385,-2.59099 2.66748,-3.35299 0.91439,-0.81278 1.67616,-1.21886 2.28576,-1.21884 0.66039,-4.2e-4 1.29541,0.40624 1.905,1.21905 0.60959,0.762 1.11765,1.87973 1.52404,3.35294 0.40639,1.4224 0.63496,3.14919 0.68573,5.18119 0.10157,1.98121 -0.0761,4.21672 -0.53327,6.7059 l -3.50584,19.96448 7.08689,3e-5 3.50514,-19.96424 c 0.45722,-2.48917 1.06713,-4.72425 1.82914,-6.70545 0.81284,-2.03197 1.65079,-3.75926 2.51437,-5.18168 0.91442,-1.47319 1.80383,-2.591 2.66745,-3.35298 0.9144,-0.81281 1.70191,-1.21909 2.36231,-1.2191 0.6604,-4.2e-4 1.29542,0.40626 1.90501,1.21907 0.60959,0.762 1.11719,1.87952 1.52358,3.35271 0.40638,1.42239 0.63519,3.14987 0.68598,5.1819 0.10156,1.98118 -0.0766,4.21648 -0.53376,6.70568 l -3.50515,19.96422 7.01039,-2e-5 c 0.40641,-2.2352 1.11736,-4.19099 2.13337,-5.8674 1.01602,-1.72718 2.18491,-3.17525 3.50571,-4.34363 1.32083,-1.21919 2.69233,-2.23479 4.11473,-3.04759 1.24872,-0.71355 2.41446,-1.28202 3.5066,-1.7215 0.0795,0.57954 0.18326,1.1536 0.31428,1.72141 0.60959,2.5908 1.77771,4.90228 3.50491,6.93429 1.67636,2.08282 3.7335,3.65752 6.17187,4.72434 2.4384,1.06681 5.10543,1.6002 8.00105,1.60022 7.97561,-2.7e-4 15.36753,-2.81931 22.17478,-8.45804 1.57481,-1.3208 2.94628,-2.64139 4.1147,-3.96219 1.21919,-1.3208 2.23494,-2.5148 3.04772,-3.58161 0.86363,-1.11759 1.60032,-2.61615 2.20995,-4.49574 l -4.87676,-2.20968 c -0.10159,0.1524 -0.33009,0.53317 -0.6857,1.14278 -0.35561,0.60958 -0.86358,1.37185 -1.524,2.28623 -0.6604,0.86362 -1.49863,1.85394 -2.51465,2.97151 -0.9652,1.06681 -2.10839,2.1334 -3.4292,3.20018 -5.33405,4.41954 -11.15074,6.62957 -17.44994,6.62953 -2.03203,-5e-5 -3.88584,-0.38119 -5.56224,-1.14321 -1.67638,-0.76202 -3.09918,-1.85399 -4.26754,-3.27637 -1.77799,-2.13363 -2.71786,-4.62285 -2.81944,-7.46765 l 32.46141,-2.2e-4 0.53334,-3.20035 c 0.10159,-0.50802 0.2033,-1.21904 0.30494,-2.13344 0.10162,-0.91439 0.15254,-1.9302 0.15254,-3.04779 -2.3e-4,-1.16842 -0.10158,-2.38788 -0.30474,-3.65788 -0.20319,-1.27 -0.53326,-2.54003 -0.99045,-3.81002 -1.38747,-3.5592 -3.62588,-6.06144 -6.71468,-7.50736 z m -3.86061,5.92635 c 0.17937,0.0888 0.35177,0.18389 0.51685,0.28549 1.37161,0.81283 2.41295,1.82904 3.12411,3.04824 0.76201,1.1684 1.24435,2.46389 1.44751,3.88628 0.20321,1.37162 0.27975,2.61613 0.22893,3.73374 l -25.9844,-6.2e-4 c 0.25398,-1.01602 0.60948,-2.05707 1.06667,-3.12386 0.45722,-1.11759 1.04111,-2.18442 1.75241,-3.20036 2.59083,-3.70839 6.93474,-5.56287 13.03076,-5.56279 1.9558,-2.9e-4 3.56144,0.31142 4.81716,0.93374 z m -133.75772,-6.0623 c -0.1496,-0.0707 -0.30064,-0.13931 -0.45297,-0.20609 -2.43838,-1.11764 -5.13072,-1.67675 -8.07712,-1.67677 -2.9464,2e-5 -5.84215,0.5591 -8.68697,1.67666 -2.8448,1.06679 -5.48629,2.6412 -7.9247,4.72398 -2.43841,2.08278 -4.44506,4.44515 -6.01989,7.08674 -1.52402,2.64157 -2.56588,5.43568 -3.12472,8.38206 -0.009,0.0528 -0.0147,0.10499 -0.0233,0.15786 -0.45964,0.18302 -0.93683,0.38007 -1.44532,0.6038 -1.21921,0.50799 -2.48943,1.16854 -3.81023,1.98134 -0.55881,0.35559 -1.11755,0.73686 -1.67636,1.14325 -0.508,0.35559 -1.04148,0.73641 -1.60028,1.1428 l 0.60961,-3.12432 c 0.55882,-3.14959 0.53345,-6.12161 -0.0761,-8.91562 -0.55878,-2.84481 -1.67639,-5.38479 -3.35279,-7.62001 -1.67638,-2.28602 -3.7592,-4.01295 -6.24843,-5.18138 -2.43836,-1.21921 -5.13044,-1.82887 -8.07686,-1.82889 -4.21641,2e-4 -8.28041,1.16817 -12.19201,3.50494 l -4.80091,-6.3e-4 -3.02407,17.25609 c -2.71712,2.7524 -5.33557,4.85083 -7.85371,6.28975 -2.8448,1.62556 -5.35931,2.76844 -7.5437,3.42883 1.67641,-2.74317 2.79427,-5.68929 3.35312,-8.8389 0.5588,-2.9464 0.50772,-5.74064 -0.15265,-8.38227 -0.6604,-2.64159 -1.82877,-5.00382 -3.50514,-7.08665 -1.72719,-2.08279 -3.81003,-3.65724 -6.24842,-4.72406 -2.43838,-1.11763 -5.13071,-1.67675 -8.07711,-1.67677 -2.94641,-8e-5 -5.84215,0.55907 -8.68696,1.67667 -2.84481,1.06678 -5.48628,2.6412 -7.9247,4.72397 -2.43842,2.08278 -4.44509,4.44514 -6.01991,7.08672 -1.52402,2.64158 -2.56541,5.43589 -3.12422,8.3823 -0.50804,2.94638 -0.45717,5.73995 0.15243,8.38156 0.66042,2.6416 1.82876,5.00383 3.50515,7.08665 1.72718,2.08282 3.81004,3.68343 6.24843,4.80107 2.48918,1.06682 5.207,1.59998 8.15338,1.60001 2.74322,6e-5 5.41,-0.45736 8.00081,-1.37173 2.5908,-0.91436 5.02928,-2.26028 7.31528,-4.03824 1.06682,-0.0508 2.54007,-0.22861 4.41968,-0.53341 1.93039,-0.30477 4.11466,-0.93964 6.55305,-1.90481 2.48922,-1.01599 5.18189,-2.46409 8.07754,-4.34369 0.58453,-0.38969 1.16138,-0.81598 1.73143,-1.27607 l -2.36041,13.4682 7.08691,3e-5 5.71501,-32.84177 c 1.52398,-1.16841 3.1242,-2.0577 4.80063,-2.6673 1.7272,-0.60959 3.45445,-0.91418 5.18164,-0.91417 1.93043,4e-4 3.70846,0.40644 5.33406,1.21927 1.67638,0.8128 3.07344,1.98124 4.19103,3.50526 2.38758,3.20042 3.20024,7.11171 2.43823,11.73451 l -3.50537,19.96469 7.01036,-2e-5 c 0.40642,-2.2352 1.06685,-4.19123 1.98126,-5.86761 0.96522,-1.67641 2.03192,-3.09872 3.20034,-4.26712 1.21919,-1.21919 2.48939,-2.20977 3.81022,-2.97175 0.84941,-0.52269 1.65191,-0.96378 2.41726,-1.33943 0.0571,0.32164 0.12198,0.64104 0.19518,0.95827 0.66039,2.64162 1.82876,5.00384 3.50513,7.08664 1.7272,2.08282 3.80958,3.68325 6.24797,4.80088 2.48922,1.06681 5.20698,1.59997 8.15342,1.59999 2.74319,6e-5 5.41044,-0.4571 8.00124,-1.37149 2.59081,-0.91438 5.02879,-2.2605 7.3148,-4.03849 1.06682,-0.0508 2.54009,-0.22861 4.4197,-0.53339 1.9304,-0.30479 4.11511,-0.93942 6.55354,-1.90461 2.48919,-1.01597 5.18142,-2.46431 8.07702,-4.34388 2.89562,-1.93038 5.61355,-4.72407 8.15357,-8.38165 l -3.73375,-3.27663 c -3.09883,3.30197 -6.07053,5.76564 -8.91533,7.39122 -2.84482,1.62557 -5.35933,2.76846 -7.54371,3.42884 1.6764,-2.74318 2.79381,-5.68953 3.35264,-8.8391 0.55884,-2.94639 0.50819,-5.74044 -0.15217,-8.38205 -0.66038,-2.64161 -1.82876,-5.00385 -3.50514,-7.08664 -1.61922,-1.95265 -3.55109,-3.45832 -5.79544,-4.518 z m -4.01566,5.79417 c 1.66374,0.74932 3.10534,1.87335 4.32455,3.37195 1.16837,1.4732 1.98098,3.12444 2.43815,4.95322 0.508,1.82883 0.55881,3.78482 0.15242,5.86762 -0.35562,2.08279 -1.09206,4.03838 -2.20966,5.86716 -1.06683,1.82879 -2.46402,3.47966 -4.19122,4.95283 -1.72723,1.47318 -3.58166,2.59102 -5.56286,3.353 -1.9304,0.76199 -3.93646,1.14283 -6.01927,1.14282 -2.08279,10e-6 -3.98784,-0.38118 -5.71506,-1.14319 -1.72719,-0.76203 -3.17521,-1.87969 -4.34361,-3.3529 -2.43839,-2.99723 -3.30203,-6.60399 -2.59081,-10.82039 0.4064,-2.0828 1.14332,-4.03814 2.21014,-5.86695 1.06683,-1.82878 2.46355,-3.47986 4.19073,-4.95304 1.72724,-1.47319 3.58169,-2.59101 5.56289,-3.35301 1.98121,-0.76195 4.01296,-1.14305 6.0958,-1.14303 2.10816,1e-4 3.99416,0.37461 5.65782,1.12391 z m 40.42404,19.81233 c -0.5334,-0.24131 -1.14287,-0.36178 -1.82866,-0.36178 -1.3208,4.5e-4 -2.56529,0.48278 -3.73372,1.44796 -1.11758,0.96519 -1.80353,2.1335 -2.05755,3.5051 -0.254,1.3208 0.0253,2.46359 0.83808,3.42877 0.81279,0.96521 1.87957,1.4479 3.20038,1.44792 1.37159,-2.2e-4 2.61612,-0.48277 3.73372,-1.44796 1.11761,-0.9652 1.80333,-2.108 2.05733,-3.4288 0.25402,-1.37158 -0.0251,-2.53987 -0.83785,-3.50508 -0.381,-0.48261 -0.83835,-0.84482 -1.37173,-1.08613 z M 273.74478,294.58996 c 1.66369,0.7493 3.10532,1.87331 4.3245,3.37191 1.16839,1.47322 1.98101,3.12444 2.43819,4.95325 0.50798,1.82879 0.55881,3.78481 0.15242,5.86761 -0.35562,2.08278 -1.09253,4.03815 -2.21013,5.86694 -1.06683,1.82879 -2.46355,3.47987 -4.19075,4.95303 -1.72724,1.47319 -3.58166,2.59105 -5.56288,3.35301 -1.9304,0.76198 -3.93694,1.14261 -6.01972,1.14259 -2.08282,2e-5 -3.98786,-0.38119 -5.71504,-1.14317 -1.72721,-0.76202 -3.17478,-1.87949 -4.34318,-3.35271 -2.43834,-2.99721 -3.30203,-6.60396 -2.5908,-10.82036 0.40642,-2.0828 1.14287,-4.03837 2.20966,-5.86716 1.06684,-1.8288 2.46401,-3.47964 4.19123,-4.95284 1.72721,-1.47319 3.58167,-2.59103 5.56286,-3.353 1.98121,-0.76198 4.013,-1.14306 6.09578,-1.14306 2.10821,10e-5 3.99419,0.37463 5.65788,1.12396 z m -28.73787,-8.28695 c -3.50522,0 -6.83273,0.33012 -9.98233,0.99049 -3.09882,0.66038 -5.89282,1.57475 -8.38202,2.74315 l 5.5e-4,-0.15234 -6.70544,-1.1e-4 -3.78778,20.46761 c -1.79924,1.57991 -3.55379,2.8644 -5.2615,3.84022 -2.84482,1.62559 -5.35931,2.76847 -7.5437,3.42886 1.67641,-2.7432 2.79428,-5.68932 3.35311,-8.83893 0.55882,-2.94639 0.50771,-5.74064 -0.15267,-8.38225 -0.66038,-2.6416 -1.82876,-5.0038 -3.50513,-7.08664 -1.72719,-2.08281 -3.80981,-3.65775 -6.2482,-4.72457 -2.43844,-1.11751 -5.13094,-1.67624 -8.07732,-1.67629 -2.94641,-7e-5 -5.84193,0.55863 -8.68673,1.6762 -2.84483,1.06678 -5.48653,2.64166 -7.92494,4.72444 -2.43841,2.0828 -4.44486,4.44468 -6.01968,7.08626 -1.26232,2.18798 -2.18828,4.48255 -2.78844,6.87963 -0.42547,0.26507 -0.99417,0.63014 -1.7433,1.12174 -1.62559,1.01599 -3.73358,2.3621 -6.32438,4.03846 -0.71122,0.4572 -1.39696,0.93999 -2.05735,1.44796 -0.60961,0.4572 -1.21935,0.93929 -1.82896,1.44727 l 0.60963,-3.42877 c 0.81282,-4.572 0.86366,-8.61034 0.15248,-12.11555 -0.66037,-3.556 -1.93026,-6.1977 -3.80985,-7.92492 0.4064,-0.25399 0.81289,-0.53329 1.2193,-0.8381 0.4064,-0.30478 0.78715,-0.63504 1.14275,-0.99063 1.16841,-0.9652 2.41335,-2.05775 3.73417,-3.27695 1.3208,-1.26999 2.48904,-2.56531 3.50504,-3.88608 1.0668,-1.42238 1.8035,-2.69221 2.20991,-3.80982 0.40642,-1.16839 0.6094,-2.1844 0.6094,-3.04802 -2.8e-4,-0.9144 -0.15229,-1.67616 -0.45708,-2.28577 -0.30479,-0.6604 -0.60982,-1.1941 -0.91461,-1.60052 -1.16838,-1.4224 -2.74295,-2.13334 -4.72415,-2.13339 -1.16841,2.4e-4 -2.36195,0.22833 -3.58115,0.68551 -1.16839,0.4064 -2.36237,0.99067 -3.58158,1.7527 -1.1684,0.71118 -2.36214,1.52375 -3.58135,2.43815 -1.16839,0.91439 -2.31183,1.82896 -3.42945,2.74335 -0.254,0.25398 -0.48204,0.48249 -0.68523,0.68569 -0.20321,0.1524 -0.43219,0.35544 -0.68617,0.60942 l 4.11498,-23.16483 -6.62914,-1.7e-4 -9.176,52.13667 c -2.72366,2.76146 -5.34797,4.86659 -7.8717,6.30871 -2.84482,1.62557 -5.35931,2.76846 -7.54373,3.42884 1.67644,-2.74318 2.79383,-5.68954 3.35265,-8.8391 0.55882,-2.94641 0.50818,-5.74042 -0.15214,-8.38205 -0.66039,-2.64161 -1.82877,-5.00384 -3.50515,-7.08666 -1.72718,-2.08282 -3.8098,-3.65774 -6.24818,-4.72457 -2.43844,-1.11751 -5.13094,-1.67625 -8.077346,-1.67628 -2.946393,-7e-5 -5.841914,0.55862 -8.68672,1.67621 -2.844818,1.06679 -5.486518,2.64166 -7.924938,4.72444 -2.43842,2.08278 -4.445086,4.44514 -6.019903,7.08672 -1.524005,2.64158 -2.565648,5.4352 -3.124482,8.38161 -0.508003,2.9464 -0.456901,5.74064 0.15266,8.38224 0.570348,2.28145 1.520006,4.35406 2.84819,6.21869 -1.126986,0.71861 -2.367603,1.51496 -3.782453,2.43045 -0.711205,0.4572 -1.39721,0.93929 -2.057612,1.44729 -0.60948,0.4571 -1.218986,0.93958 -1.828464,1.44748 0.06983,-0.39371 0.130215,-0.78433 0.181815,-1.17246 0.05158,-0.38813 0.09412,-0.77361 0.127485,-1.1562 0.03322,-0.38243 0.05764,-0.76213 0.07263,-1.13899 v 0 c 0.0077,-0.18834 0.01217,-0.37597 0.01553,-0.56292 v 0 c 0.0027,-0.18699 0.004,-0.37351 0.0017,-0.55909 v 0 c -0.0014,-0.18558 -0.0059,-0.37036 -0.01202,-0.55454 v 0 c -0.0064,-0.18432 -0.01501,-0.36773 -0.02545,-0.55069 -0.0214,-0.36589 -0.05205,-0.72926 -0.09175,-1.08964 -0.01988,-0.18017 -0.04208,-0.35966 -0.06646,-0.53846 -8.92e-4,-0.0106 -0.0038,-0.021 -0.0047,-0.0318 -0.08874,-0.77759 -0.228706,-1.54007 -0.422888,-2.28693 -0.60958,-2.59076 -1.752716,-4.87728 -3.42908,-6.85846 -1.015974,-1.21918 -2.133321,-2.23474 -3.352503,-3.04753 0.812781,-0.40639 1.574354,-0.8632 2.285549,-1.3712 0.711202,-0.55879 1.422435,-1.11759 2.133637,-1.67638 2.438391,-2.03196 4.394351,-4.31788 5.867567,-6.85786 1.523975,-2.59072 2.539902,-5.30908 3.047926,-8.15386 l 3.201154,-18.13483 c 0.355609,-1.98116 1.066593,-3.86078 2.133392,-5.63876 1.066796,-1.82876 2.412565,-3.45415 4.038162,-4.87651 3.454378,-2.89553 7.213458,-4.34372 11.277424,-4.34369 l 1.143159,-6.40098 c -2.895542,-5e-5 -5.714899,0.53361 -8.458073,1.60038 -2.743173,1.06677 -5.282966,2.6164 -7.619743,4.64835 -2.438392,2.03197 -4.419626,4.3434 -5.943623,6.93414 -1.473207,2.53997 -2.463417,5.23188 -2.971431,8.07665 l -3.200921,18.13552 c -0.355618,1.98119 -1.066797,3.88627 -2.133605,5.71505 -1.066808,1.77796 -2.413046,3.37812 -4.038622,4.80046 -2.48919,2.13357 -5.181273,3.45398 -8.076855,3.96196 l 8.915468,-50.67187 -6.324435,-2e-4 c -0.355608,1.98116 -1.092307,3.88605 -2.209905,5.71483 -1.066808,1.77794 -2.438533,3.37784 -4.114931,4.80021 -1.625586,1.42237 -3.42909,2.51448 -5.410294,3.27649 -1.930374,0.71117 -3.885939,1.06723 -5.86711,1.0672 l -1.067133,6.40054 c 2.844751,1e-5 5.613587,-0.50764 8.305969,-1.52364 2.743164,-1.06676 5.308444,-2.59112 7.696036,-4.5723 l -6.32467,35.88981 -14.93534,-7.6e-4 c -2.844781,-2e-5 -5.639086,0.53361 -8.382249,1.60036 -2.743174,1.06676 -5.333965,2.61596 -7.772357,4.64793 -2.387591,1.98116 -4.342622,4.26753 -5.8666184,6.85826 -1.4732059,2.53997 -2.4895895,5.2581 -3.0484049,8.15367 -0.4572217,2.89556 -0.3810959,5.61247 0.2284223,8.15246 0.6095797,2.59076 1.7524827,4.87657 3.4288264,6.85778 1.6255726,2.03198 3.6322136,3.58145 6.0197716,4.64825 2.387578,1.0668 5.003937,1.60044 7.848709,1.60046 2.895572,-6e-5 5.714897,-0.5336 8.458071,-1.60033 2.743174,-1.06678 5.333751,-2.61553 7.772133,-4.64746 2.336788,-1.98116 4.242003,-4.26688 5.715218,-6.85763 1.523987,-2.53993 2.539913,-5.25831 3.047926,-8.15386 l 2.591302,-14.55392 c 2.793794,0.60955 5.02819,1.9556 6.704538,4.03819 0,0 4.68e-4,2.1e-4 4.68e-4,2.1e-4 0.07456,0.10003 0.146611,0.20067 0.217033,0.30247 l 4.78e-4,2.3e-4 c 0.352473,0.50945 0.65416,1.0429 0.909217,1.59742 l 4.88e-4,2.2e-4 c 0.918257,1.99674 1.231385,4.27232 1.131915,6.72979 -0.01131,0.27305 -0.02703,0.54806 -0.04796,0.8255 -0.06293,0.83242 -0.169581,1.68378 -0.312484,2.5507 l -3.505619,19.96401 9.67e-4,-0.002 -6.55e-4,0.003 7.010389,-10e-6 0.8378,-4.64807 c 0.355555,-2.08274 1.016042,-3.98765 1.981257,-5.7148 0.965195,-1.77796 2.057662,-3.37811 3.276854,-4.80048 1.219221,-1.42241 2.489178,-2.66744 3.809982,-3.73422 1.371584,-1.06678 2.616094,-1.95585 3.733688,-2.66703 0.232422,-0.14146 0.450409,-0.27044 0.666763,-0.39784 1.145457,0.9326 2.402714,1.71297 3.77269,2.34089 2.489194,1.06681 5.206765,1.60045 8.15317,1.60046 2.743189,5e-5 5.410453,-0.45711 8.001254,-1.37151 2.590814,-0.91436 5.029504,-2.26073 7.315514,-4.03872 1.06681,-0.0508 2.54005,-0.22859 4.41966,-0.53339 1.93041,-0.30479 4.11465,-0.93964 6.55309,-1.90483 2.48919,-1.01597 5.1812,-2.46387 8.07682,-4.34343 0.58747,-0.39163 1.16765,-0.82051 1.7405,-1.28325 l -2.37178,13.47544 6.62961,7e-5 3.2765,-18.74516 c 0.40643,-2.28599 0.96532,-4.36904 1.67654,-6.24862 0.76205,-1.93039 1.5497,-3.55598 2.36252,-4.87677 0.86359,-1.3716 1.70158,-2.41267 2.51439,-3.12387 0.8128,-0.76199 1.52405,-1.14327 2.13365,-1.14324 0.60961,1.5e-4 1.19387,0.38144 1.75265,1.14345 0.60959,0.71122 1.09216,1.75247 1.44774,3.12406 0.4064,1.32079 0.63496,2.94634 0.68576,4.87673 0.1016,1.8796 -0.0509,3.96217 -0.45726,6.24817 l -3.27672,18.7456 6.55332,1.3e-4 c 0.35561,-2.08278 1.01603,-3.9876 1.98126,-5.71478 0.96521,-1.77801 2.05716,-3.3783 3.27637,-4.8007 1.21921,-1.4224 2.48941,-2.66675 3.81022,-3.73353 1.3716,-1.06677 2.61609,-1.95583 3.7337,-2.66704 0.40806,-0.2484 0.78232,-0.46723 1.14082,-0.67224 0.0239,1.40556 0.18832,2.77271 0.49487,4.1012 0.6604,2.64161 1.82877,5.00383 3.50513,7.08665 1.72721,2.08279 3.81027,3.68298 6.24867,4.8006 2.48916,1.06681 5.20699,1.59996 8.15337,1.60002 2.74322,6e-5 5.40999,-0.45736 8.00079,-1.37173 2.59081,-0.91437 5.0293,-2.26028 7.31532,-4.03824 1.06679,-0.0508 2.54005,-0.22864 4.41965,-0.5334 1.93039,-0.30479 4.11467,-0.93966 6.55306,-1.90483 2.24844,-0.91772 4.66419,-2.19137 7.24423,-3.8137 l -2.15796,11.66214 6.70589,1.1e-4 3.57578,-19.37593 c 0.28971,-0.38894 0.57791,-0.78728 0.86314,-1.19801 l -0.55263,-0.48519 1.75267,-9.49685 c 0.15241,-0.66041 0.71113,-1.3717 1.67634,-2.13369 1.01599,-0.76199 2.36224,-1.47332 4.03864,-2.13368 1.6764,-0.66039 3.63194,-1.21899 5.86714,-1.67617 2.28601,-0.45718 4.75023,-0.68581 7.39183,-0.68578 z m -51.7783,8.28662 c 1.66372,0.74927 3.10531,1.87334 4.32451,3.37193 1.16837,1.47321 1.98121,3.12398 2.43839,4.95277 0.50799,1.8288 0.55883,3.7848 0.15244,5.86759 -0.35562,2.08281 -1.09256,4.03818 -2.21017,5.86696 -1.06681,1.8288 -2.46352,3.47988 -4.19073,4.95307 -1.72722,1.47317 -3.58167,2.591 -5.56288,3.35296 -1.9304,0.762 -3.93713,1.1431 -6.01995,1.14309 -2.08281,2e-5 -3.98783,-0.38118 -5.71503,-1.14319 -1.7272,-0.76201 -3.17479,-1.87949 -4.34315,-3.35269 -2.4384,-2.99723 -3.30183,-6.60445 -2.59061,-10.82084 0.40644,-2.08281 1.14288,-4.03836 2.20969,-5.86717 1.06681,-1.8288 2.464,-3.47964 4.1912,-4.95282 1.72721,-1.47319 3.58145,-2.59056 5.56265,-3.35255 1.98122,-0.76198 4.01322,-1.14352 6.096,-1.14351 2.10821,0 3.99398,0.37509 5.65765,1.1244 z m -39.50717,-17.92681 c 0.0634,0.0253 0.10816,0.0639 0.13353,0.11473 0.2032,0.25399 0.15245,0.68554 -0.15235,1.29513 -0.30477,0.6096 -0.60976,1.09213 -0.91457,1.44772 -0.81282,1.01599 -1.77779,2.03227 -2.89539,3.04826 -1.06681,1.01599 -2.08278,1.95558 -3.048,2.81916 -1.16842,1.016 -2.43862,1.85409 -3.81022,2.51445 -1.32082,0.66041 -2.66682,1.1687 -4.03841,1.52428 1.1176,-2.64158 2.87004,-5.02919 5.25766,-7.16278 1.47321,-1.21916 2.74343,-2.20976 3.81022,-2.97175 1.0668,-0.76199 1.95557,-1.32079 2.66677,-1.67639 0.7112,-0.40639 1.27018,-0.66064 1.67657,-0.76222 0.45723,-0.15242 0.81273,-0.22846 1.06672,-0.22845 0.1016,3.5e-4 0.18399,0.0125 0.24748,0.0379 z m -51.87079,17.92586 c 1.66373,0.74927 3.10532,1.87334 4.32451,3.37194 1.1684,1.47322 1.98121,3.12397 2.4384,4.95276 0.50798,1.82881 0.55882,3.78483 0.15241,5.86762 -0.3556,2.08279 -1.09225,4.03882 -2.20988,5.86763 -1.06682,1.82879 -2.46398,3.47964 -4.19121,4.95282 -1.72721,1.47319 -3.580964,2.59076 -5.562177,3.35276 -1.930413,0.76198 -3.937151,1.14307 -6.019946,1.14307 -2.082804,10e-6 -3.987854,-0.38116 -5.715042,-1.1432 -1.727189,-0.76201 -3.175244,-1.87971 -4.343628,-3.35293 -2.438374,-2.9972 -3.301577,-6.60373 -2.590335,-10.82014 0.406419,-2.08282 1.143068,-4.03882 2.209885,-5.86762 1.066807,-1.8288 2.463536,-3.47987 4.190754,-4.95307 1.72721,-1.47319 3.581438,-2.59054 5.562643,-3.3525 1.981203,-0.76202 4.012983,-1.1431 6.095776,-1.14307 2.108205,1e-4 3.99418,0.37463 5.65787,1.12393 z m -56.801033,17.76903 -2.667349,14.85884 c -0.355618,1.98116 -1.066592,3.86077 -2.1334,5.63876 -1.066777,1.82873 -2.438281,3.45437 -4.114678,4.87673 -1.625586,1.42239 -3.429354,2.4888 -5.410528,3.19997 -1.930392,0.76199 -3.885959,1.14305 -5.867128,1.14303 -4.063965,1.9e-4 -7.315147,-1.44793 -9.753499,-4.3435 -1.168384,-1.42238 -1.981227,-3.04816 -2.438405,-4.87694 -0.406373,-1.77802 -0.43195,-3.65709 -0.07629,-5.63827 0.406401,-1.98114 1.117394,-3.86079 2.13339,-5.63874 1.066798,-1.82876 2.438984,-3.45466 4.115371,-4.87701 1.625595,-1.42237 3.403397,-2.48925 5.333758,-3.20041 1.981194,-0.76199 3.962281,-1.14285 5.943431,-1.1428 z"
       id="path981"
       inkscape:connector-curvature="0"
       inkscape:transform-center-x="25.041237"
       inkscape:transform-center-y="-30.463286" />
  </g>
</svg>
