<svg xmlns:xlink="http://www.w3.org/1999/xlink" width="1998.137" height="366.495" viewBox="0 0 528.674 96.969"><defs><linearGradient id="prefix__a"><stop stop-color="#0fc" offset="0"/><stop offset=".5" stop-color="#5858b5"/><stop stop-color="#ff0050" offset="1"/></linearGradient><linearGradient id="prefix__b"><stop offset="0" stop-color="#0fc"/><stop offset="1" stop-color="#ff0050"/></linearGradient><linearGradient xlink:href="#prefix__a" id="prefix__c" gradientUnits="userSpaceOnUse" x1="-67.324" y1="142.192" x2="471.845" y2="142.192" gradientTransform="matrix(.99999 0 0 .99999 62.729 157.9)"/></defs><path style="line-height:1.25;-inkscape-font-specification:Hitchhiker" d="M516.88 288.932c-2.114-.989-4.626-1.484-7.536-1.484-2.692 0-5.08.28-7.162.838-2.083.56-3.912 1.27-5.487 2.134-1.524.864-2.845 1.829-3.962 2.896-1.118 1.066-2.032 2.107-2.743 3.123-1.677 2.337-2.845 4.674-3.506 7.011-.536 2.057-.926 3.739-1.187 5.087-.738.258-1.535.565-2.405.933-1.27.508-2.616 1.168-4.039 1.981-.762.406-1.498.864-2.21 1.372-.66.457-1.346.94-2.057 1.447l.686-3.581c.61-3.353.813-6.452.61-9.296-.204-2.896-.737-5.385-1.6-7.468-.813-2.133-1.93-3.785-3.353-4.953-1.423-1.22-3.099-1.83-5.03-1.83-2.031 0-4.013.661-5.943 1.982-1.93 1.32-3.709 3.125-5.334 5.41-.813-2.285-1.956-4.09-3.429-5.41-1.473-1.32-3.25-1.981-5.334-1.981-1.168 0-2.337.228-3.505.685-1.168.458-2.286 1.118-3.353 1.982l.305-1.524h-7.087l-3.962 22.403-.153.838-3.353 19.126h7.087l3.353-19.126.152-.838c.457-2.49 1.067-4.724 1.83-6.705.812-2.032 1.65-3.76 2.514-5.182.914-1.473 1.803-2.591 2.667-3.353.914-.813 1.676-1.219 2.286-1.219.66 0 1.295.406 1.905 1.22.61.761 1.117 1.879 1.524 3.352.406 1.423.635 3.15.686 5.181.101 1.982-.077 4.217-.534 6.706l-3.506 19.965h7.087l3.505-19.965c.458-2.489 1.068-4.724 1.83-6.705.812-2.032 1.65-3.76 2.514-5.182.914-1.473 1.804-2.59 2.667-3.353.915-.812 1.702-1.219 2.363-1.219.66 0 1.295.407 1.905 1.22.61.761 1.117 1.879 1.523 3.352.407 1.422.636 3.15.686 5.182.102 1.981-.076 4.216-.533 6.706l-3.506 19.964h7.01c.407-2.235 1.118-4.191 2.134-5.868 1.016-1.727 2.185-3.175 3.506-4.343 1.32-1.22 2.692-2.235 4.115-3.048a28.696 28.696 0 013.506-1.721c.08.58.183 1.153.314 1.721a16.339 16.339 0 003.505 6.934 16.095 16.095 0 006.172 4.725c2.439 1.067 5.106 1.6 8.001 1.6 7.976 0 15.368-2.82 22.175-8.458 1.575-1.32 2.946-2.641 4.115-3.962 1.219-1.321 2.235-2.515 3.048-3.582.863-1.117 1.6-2.616 2.21-4.496l-4.877-2.21c-.102.153-.33.534-.686 1.143-.356.61-.864 1.372-1.524 2.287-.66.863-1.499 1.854-2.515 2.971-.965 1.067-2.108 2.134-3.429 3.2-5.334 4.42-11.15 6.63-17.45 6.63-2.032 0-3.886-.381-5.562-1.143a11.737 11.737 0 01-4.268-3.277c-1.778-2.133-2.717-4.623-2.819-7.467h32.461l.534-3.2a26.43 26.43 0 00.305-2.134c.101-.915.152-1.93.152-3.048 0-1.169-.101-2.388-.305-3.658a21.056 21.056 0 00-.99-3.81c-1.387-3.56-3.626-6.061-6.715-7.507zm-3.861 5.927c.18.089.352.184.517.285 1.371.813 2.413 1.83 3.124 3.049a9.476 9.476 0 011.447 3.886c.203 1.371.28 2.616.23 3.734l-25.985-.001c.254-1.016.61-2.057 1.066-3.124a16.385 16.385 0 011.753-3.2c2.59-3.709 6.935-5.563 13.03-5.563 1.956 0 3.562.311 4.818.934zm-133.758-6.063c-.15-.07-.3-.139-.453-.206-2.438-1.117-5.13-1.676-8.077-1.676-2.946 0-5.842.559-8.687 1.676-2.845 1.067-5.486 2.641-7.925 4.724-2.438 2.083-4.445 4.445-6.02 7.087a26.577 26.577 0 00-3.124 8.382c-.01.053-.015.105-.024.158-.46.183-.936.38-1.445.604-1.22.508-2.49 1.168-3.81 1.981-.559.356-1.118.737-1.677 1.143-.508.356-1.041.737-1.6 1.143l.61-3.124c.559-3.15.533-6.122-.076-8.916-.56-2.845-1.677-5.385-3.353-7.62-1.676-2.286-3.76-4.013-6.249-5.181-2.438-1.22-5.13-1.83-8.076-1.83-4.217.001-8.28 1.17-12.192 3.506h-4.801l-3.024 17.255c-2.717 2.753-5.336 4.851-7.854 6.29-2.845 1.626-5.36 2.768-7.544 3.429a25.276 25.276 0 003.353-8.839c.56-2.946.508-5.74-.152-8.382-.66-2.642-1.83-5.004-3.505-7.087-1.728-2.083-3.81-3.657-6.249-4.724-2.438-1.118-5.13-1.677-8.077-1.677-2.946 0-5.842.56-8.687 1.677-2.845 1.067-5.486 2.641-7.925 4.724-2.438 2.083-4.445 4.445-6.02 7.087a26.576 26.576 0 00-3.124 8.382c-.508 2.946-.457 5.74.153 8.381.66 2.642 1.828 5.004 3.505 7.087a17.492 17.492 0 006.248 4.801c2.49 1.067 5.207 1.6 8.154 1.6 2.743 0 5.41-.457 8-1.372 2.591-.914 5.03-2.26 7.316-4.038 1.067-.05 2.54-.228 4.42-.533 1.93-.305 4.114-.94 6.552-1.905 2.49-1.016 5.182-2.464 8.078-4.344.585-.39 1.161-.816 1.731-1.276l-2.36 13.468h7.087l5.715-32.841c1.524-1.169 3.124-2.058 4.8-2.668 1.728-.61 3.455-.914 5.182-.914 1.93 0 3.709.407 5.334 1.22a11.176 11.176 0 014.191 3.505c2.388 3.2 3.2 7.111 2.439 11.734l-3.506 19.965h7.01c.407-2.235 1.067-4.191 1.982-5.868.965-1.676 2.032-3.098 3.2-4.267 1.22-1.219 2.49-2.21 3.81-2.972.85-.522 1.652-.963 2.418-1.339.057.322.122.641.195.958.66 2.642 1.829 5.004 3.505 7.087a17.49 17.49 0 006.248 4.8c2.49 1.068 5.207 1.6 8.153 1.6 2.743 0 5.41-.456 8.002-1.37 2.59-.915 5.028-2.261 7.314-4.04 1.067-.05 2.54-.228 4.42-.533 1.93-.304 4.115-.939 6.554-1.904 2.489-1.016 5.181-2.464 8.077-4.344 2.895-1.93 5.613-4.724 8.153-8.382l-3.734-3.276c-3.098 3.302-6.07 5.765-8.915 7.39-2.845 1.626-5.36 2.77-7.544 3.43a25.276 25.276 0 003.353-8.84c.559-2.946.508-5.74-.152-8.381-.66-2.642-1.829-5.004-3.505-7.087-1.62-1.953-3.551-3.458-5.796-4.518zm-4.016 5.795c1.664.749 3.106 1.873 4.325 3.372a12.927 12.927 0 012.438 4.953c.508 1.829.559 3.785.153 5.867a16.475 16.475 0 01-2.21 5.868c-1.067 1.828-2.464 3.48-4.191 4.952-1.728 1.474-3.582 2.591-5.563 3.353a16.248 16.248 0 01-6.02 1.143c-2.082 0-3.987-.38-5.715-1.143a11.267 11.267 0 01-4.343-3.353c-2.439-2.997-3.302-6.604-2.591-10.82a18.65 18.65 0 012.21-5.867c1.067-1.829 2.464-3.48 4.19-4.953 1.728-1.473 3.583-2.591 5.564-3.353a16.846 16.846 0 016.096-1.143c2.108 0 3.994.374 5.657 1.124zm40.424 19.812c-.533-.241-1.142-.362-1.828-.362-1.321 0-2.566.483-3.734 1.448-1.118.965-1.803 2.134-2.058 3.505-.254 1.321.026 2.464.839 3.429.812.965 1.88 1.448 3.2 1.448 1.372 0 2.616-.483 3.734-1.448 1.117-.965 1.803-2.108 2.057-3.429.254-1.371-.025-2.54-.838-3.505a3.649 3.649 0 00-1.372-1.086zM273.745 294.59c1.663.75 3.105 1.873 4.324 3.372a12.927 12.927 0 012.438 4.953c.508 1.829.56 3.785.153 5.868a16.475 16.475 0 01-2.21 5.867c-1.067 1.828-2.464 3.48-4.191 4.953-1.727 1.473-3.582 2.59-5.563 3.353a16.25 16.25 0 01-6.02 1.142c-2.082 0-3.987-.38-5.715-1.143a11.264 11.264 0 01-4.343-3.353c-2.438-2.997-3.302-6.604-2.59-10.82a18.65 18.65 0 012.21-5.867c1.066-1.829 2.463-3.48 4.19-4.953 1.727-1.473 3.582-2.591 5.563-3.353a16.846 16.846 0 016.096-1.143c2.108 0 3.994.375 5.658 1.124zm-28.738-8.287c-3.505 0-6.833.33-9.982.99-3.1.66-5.893 1.575-8.382 2.744v-.153h-6.705l-3.788 20.468c-1.8 1.58-3.554 2.864-5.262 3.84-2.844 1.626-5.359 2.769-7.543 3.429a25.276 25.276 0 003.353-8.839c.559-2.946.508-5.74-.153-8.382-.66-2.642-1.829-5.004-3.505-7.087-1.727-2.083-3.81-3.658-6.248-4.724-2.439-1.118-5.131-1.677-8.078-1.677-2.946 0-5.841.559-8.686 1.676-2.845 1.067-5.487 2.642-7.925 4.725-2.439 2.083-4.445 4.445-6.02 7.086a26.664 26.664 0 00-2.788 6.88c-.426.265-.994.63-1.744 1.121a498.864 498.864 0 00-6.324 4.039c-.711.457-1.397.94-2.057 1.448-.61.457-1.22.94-1.83 1.447l.61-3.429c.813-4.572.864-8.61.153-12.115-.66-3.556-1.93-6.198-3.81-7.925a17.43 17.43 0 001.22-.838c.406-.305.786-.635 1.142-.99a90.88 90.88 0 003.734-3.278 35.094 35.094 0 003.505-3.886c1.067-1.422 1.804-2.692 2.21-3.81.407-1.168.61-2.184.61-3.048 0-.914-.153-1.676-.458-2.285-.304-.66-.61-1.195-.914-1.601-1.169-1.422-2.743-2.133-4.724-2.133-1.169 0-2.362.228-3.581.685-1.169.407-2.363.99-3.582 1.753a44.88 44.88 0 00-3.581 2.438 202.714 202.714 0 00-3.43 2.743l-.685.686a6.606 6.606 0 00-.686.61l4.115-23.165h-6.63l-9.175 52.136c-2.724 2.762-5.348 4.867-7.872 6.309-2.845 1.625-5.36 2.768-7.544 3.429a25.276 25.276 0 003.353-8.84c.559-2.946.508-5.74-.152-8.381-.66-2.642-1.83-5.004-3.505-7.087-1.728-2.083-3.81-3.658-6.249-4.725-2.438-1.117-5.13-1.676-8.077-1.676-2.946 0-5.842.559-8.687 1.676-2.845 1.067-5.486 2.642-7.925 4.725-2.438 2.082-4.445 4.445-6.02 7.086a26.574 26.574 0 00-3.124 8.382c-.508 2.946-.457 5.74.153 8.382a18.24 18.24 0 002.848 6.219 670.179 670.179 0 00-3.783 2.43c-.71.458-1.397.94-2.057 1.448-.61.457-1.22.94-1.829 1.447a27.348 27.348 0 00.31-2.328 24.584 24.584 0 00.088-1.702c.002-.187.004-.374.001-.56a24.718 24.718 0 00-.037-1.105 21.32 21.32 0 00-.158-1.628l-.005-.032a16.52 16.52 0 00-.423-2.287c-.61-2.59-1.753-4.877-3.429-6.858-1.016-1.22-2.133-2.235-3.352-3.048a17.012 17.012 0 002.285-1.37l2.134-1.677c2.438-2.032 4.394-4.318 5.867-6.858 1.524-2.59 2.54-5.31 3.048-8.154l3.201-18.135a16.575 16.575 0 012.134-5.638 19.506 19.506 0 014.038-4.877c3.454-2.895 7.213-4.344 11.277-4.344l1.144-6.4c-2.896 0-5.715.533-8.459 1.6-2.743 1.067-5.282 2.616-7.62 4.648-2.438 2.032-4.419 4.344-5.943 6.934a24.606 24.606 0 00-2.971 8.077l-3.201 18.135c-.356 1.982-1.067 3.887-2.134 5.715a20.103 20.103 0 01-4.038 4.8c-2.49 2.135-5.182 3.455-8.077 3.963l8.915-50.672h-6.324c-.356 1.981-1.093 3.886-2.21 5.715-1.067 1.778-2.439 3.377-4.115 4.8a17.943 17.943 0 01-5.41 3.276 16.855 16.855 0 01-5.868 1.068l-1.067 6.4c2.845 0 5.614-.508 8.306-1.524 2.743-1.066 5.309-2.59 7.696-4.572l-6.324 35.89H31.256c-2.844 0-5.639.533-8.382 1.6-2.743 1.066-5.334 2.616-7.772 4.647-2.388 1.982-4.343 4.268-5.867 6.859a25.931 25.931 0 00-3.048 8.153c-.458 2.896-.381 5.613.228 8.153.61 2.59 1.753 4.876 3.429 6.858a15.91 15.91 0 006.02 4.648c2.387 1.067 5.004 1.6 7.848 1.6 2.896 0 5.715-.533 8.459-1.6 2.743-1.067 5.333-2.615 7.772-4.647 2.336-1.982 4.242-4.267 5.715-6.858a23.672 23.672 0 003.048-8.154l2.591-14.554c2.794.61 5.028 1.956 6.705 4.038a10.549 10.549 0 011.127 1.9c.919 1.998 1.232 4.273 1.132 6.73a24.38 24.38 0 01-.048.826c-.063.833-.17 1.684-.312 2.55l-3.506 19.965.001-.002v.003h7.01l.838-4.648c.355-2.083 1.016-3.988 1.98-5.715a27.515 27.515 0 013.278-4.8 29.225 29.225 0 013.81-3.735c1.371-1.066 2.616-1.956 3.733-2.667.233-.141.45-.27.667-.398a17.488 17.488 0 003.773 2.341c2.49 1.067 5.207 1.6 8.153 1.6 2.743 0 5.41-.456 8.001-1.37 2.591-.915 5.03-2.261 7.316-4.04 1.067-.05 2.54-.228 4.42-.533 1.93-.305 4.114-.94 6.553-1.905 2.489-1.016 5.18-2.464 8.076-4.343.588-.392 1.168-.82 1.74-1.283l-2.37 13.475h6.629l3.276-18.745c.407-2.286.966-4.369 1.677-6.249.762-1.93 1.55-3.556 2.362-4.876.864-1.372 1.702-2.413 2.515-3.124.812-.762 1.524-1.143 2.133-1.143.61 0 1.194.381 1.753 1.143.61.711 1.092 1.752 1.448 3.124.406 1.32.635 2.946.685 4.877.102 1.88-.05 3.962-.457 6.248l-3.276 18.746h6.553c.355-2.083 1.016-3.988 1.981-5.715a27.514 27.514 0 013.276-4.8 29.22 29.22 0 013.81-3.734c1.372-1.067 2.617-1.956 3.734-2.667.408-.249.783-.468 1.141-.673.024 1.406.189 2.773.495 4.102.66 2.641 1.829 5.003 3.505 7.086a17.492 17.492 0 006.249 4.8c2.489 1.068 5.207 1.6 8.153 1.6 2.743 0 5.41-.457 8.001-1.37 2.59-.915 5.03-2.261 7.315-4.04 1.067-.05 2.54-.228 4.42-.533 1.93-.304 4.115-.94 6.553-1.904 2.248-.918 4.664-2.192 7.244-3.814l-2.158 11.662h6.706l3.576-19.376c.29-.389.578-.787.863-1.198l-.552-.485 1.752-9.497c.153-.66.711-1.371 1.677-2.133 1.016-.762 2.362-1.474 4.038-2.134 1.677-.66 3.632-1.22 5.867-1.676 2.286-.457 4.75-.686 7.392-.686zm-51.778 8.287c1.663.749 3.105 1.873 4.324 3.372a12.925 12.925 0 012.439 4.952c.508 1.83.558 3.785.152 5.868a16.474 16.474 0 01-2.21 5.867c-1.067 1.829-2.464 3.48-4.19 4.953-1.728 1.473-3.583 2.591-5.564 3.353a16.252 16.252 0 01-6.02 1.143c-2.083 0-3.988-.381-5.715-1.143a11.264 11.264 0 01-4.343-3.353c-2.438-2.997-3.302-6.604-2.59-10.82a18.651 18.651 0 012.21-5.868c1.066-1.829 2.463-3.48 4.19-4.953 1.728-1.473 3.582-2.59 5.563-3.352a16.848 16.848 0 016.096-1.144c2.108 0 3.994.375 5.658 1.125zm-39.508-17.927a.242.242 0 01.134.115c.203.254.152.685-.152 1.295-.305.61-.61 1.092-.915 1.447a26.666 26.666 0 01-2.895 3.049 133.784 133.784 0 01-3.048 2.819 17.072 17.072 0 01-3.81 2.514 20.544 20.544 0 01-4.039 1.525c1.118-2.642 2.87-5.03 5.258-7.163 1.473-1.22 2.743-2.21 3.81-2.972 1.067-.762 1.955-1.32 2.667-1.676.71-.407 1.27-.661 1.676-.763.457-.152.813-.228 1.067-.228.102 0 .184.012.247.038zm-51.87 17.926c1.663.749 3.105 1.873 4.324 3.372a12.925 12.925 0 012.439 4.952c.508 1.83.558 3.785.152 5.868a16.477 16.477 0 01-2.21 5.868c-1.067 1.828-2.464 3.48-4.191 4.952-1.727 1.474-3.581 2.591-5.562 3.353a16.252 16.252 0 01-6.02 1.143c-2.083 0-3.988-.38-5.715-1.143a11.266 11.266 0 01-4.344-3.353c-2.438-2.997-3.301-6.604-2.59-10.82a18.653 18.653 0 012.21-5.868c1.066-1.828 2.463-3.48 4.19-4.953 1.728-1.473 3.582-2.59 5.563-3.352a16.845 16.845 0 016.096-1.143c2.108 0 3.994.374 5.658 1.124zM45.05 312.358l-2.668 14.859a16.575 16.575 0 01-2.133 5.638 18.777 18.777 0 01-4.115 4.877 16.753 16.753 0 01-5.41 3.2c-1.93.762-3.886 1.143-5.867 1.143-4.064 0-7.316-1.448-9.754-4.343a12.27 12.27 0 01-2.438-4.877c-.407-1.778-.432-3.657-.077-5.639a18.99 18.99 0 012.134-5.638 18.78 18.78 0 014.115-4.877c1.626-1.423 3.403-2.49 5.334-3.2 1.981-.763 3.962-1.144 5.943-1.144z" letter-spacing="-.003" fill="url(#prefix__c)" transform="translate(-5.893 -251.704)" font-weight="400" font-size="76.2" word-spacing="0" font-family="Hitchhiker"/></svg>