<svg xmlns="http://www.w3.org/2000/svg" width="645.2" height="645.2" viewBox="0 0 170.71 170.71"><g transform="translate(-21.99 14.65)"><path d="M143.43-7.47a50 50 0 00-36.08 14.64 50 50 0 00-48.3-12.94 50 50 0 00-35.36 35.36 50 50 0 0012.94 48.3l70.72 70.7 70.7-70.7A50 50 0 00191 29.58a50 50 0 00-35.36-35.36 50 50 0 00-12.2-1.7z" fill="#323130"/><path d="M40.57 33.02a66.9 66.9 0 0066.77 62.74 66.9 66.9 0 0066.78-62.74" fill="#e5e5e5"/><circle cx="107.35" cy="53.69" r="29.46" fill="#323130"/><path d="M93.12 33.02a50 50 0 00-.24 1.72 50 50 0 00-.17 5 50 50 0 00.32 4.99 50 50 0 00.82 4.93 50 50 0 001.3 4.82 50 50 0 001.79 4.67 50 50 0 002.24 4.47 50 50 0 002.67 4.22 50 50 0 003.08 3.93 50 50 0 002.42 2.6 50 50 0 003.35-3.71 50 50 0 002.96-4.03 50 50 0 002.55-4.3 50 50 0 002.11-4.53 50 50 0 001.65-4.72 50 50 0 001.16-4.86 50 50 0 00.68-4.95 50 50 0 00.17-5 50 50 0 00-.32-4.98 50 50 0 00-.04-.27z" fill="#ff6e6e"/></g></svg>