<svg xmlns="http://www.w3.org/2000/svg" xmlns:xlink="http://www.w3.org/1999/xlink" width="1920" height="1920" viewBox="0 0 507.99999 508.00001"><defs><linearGradient id="a"><stop offset="0" stop-color="#0fc"/><stop offset="1" stop-color="#ff0050"/></linearGradient><linearGradient xlink:href="#a" id="b" gradientUnits="userSpaceOnUse" x1="-67.324095" y1="142.19197" x2="471.84548" y2="142.19197" gradientTransform="matrix(3.42542 -1.5973 1.5973 3.42542 0 797.48039)"/><linearGradient xlink:href="#a" id="c" gradientUnits="userSpaceOnUse" x1="-67.324095" y1="142.19197" x2="471.84548" y2="142.19197" gradientTransform="rotate(-25)"/><linearGradient xlink:href="#a" id="d" gradientUnits="userSpaceOnUse" x1="-67.324095" y1="142.19197" x2="471.84548" y2="142.19197" gradientTransform="rotate(-25)"/><linearGradient xlink:href="#a" id="e" gradientUnits="userSpaceOnUse" x1="-67.324095" y1="142.19197" x2="471.84548" y2="142.19197" gradientTransform="rotate(-25)"/><linearGradient xlink:href="#a" id="f" gradientUnits="userSpaceOnUse" x1="-67.324095" y1="142.19197" x2="471.84548" y2="142.19197" gradientTransform="rotate(-25)"/><linearGradient xlink:href="#a" id="g" gradientUnits="userSpaceOnUse" x1="-67.324095" y1="142.19197" x2="471.84548" y2="142.19197" gradientTransform="rotate(-25)"/><linearGradient xlink:href="#a" id="h" gradientUnits="userSpaceOnUse" x1="-67.324095" y1="142.19197" x2="471.84548" y2="142.19197" gradientTransform="rotate(-25)"/><linearGradient xlink:href="#a" id="i" gradientUnits="userSpaceOnUse" x1="-67.324095" y1="142.19197" x2="471.84548" y2="142.19197" gradientTransform="rotate(-25)"/><linearGradient xlink:href="#a" id="j" gradientUnits="userSpaceOnUse" x1="-67.324095" y1="142.19197" x2="471.84548" y2="142.19197" gradientTransform="rotate(-25)"/><linearGradient xlink:href="#a" id="k" gradientUnits="userSpaceOnUse" x1="-67.324095" y1="142.19197" x2="471.84548" y2="142.19197" gradientTransform="rotate(-25)"/><linearGradient xlink:href="#a" id="l" gradientUnits="userSpaceOnUse" x1="-67.324095" y1="142.19197" x2="471.84548" y2="142.19197" gradientTransform="rotate(-25)"/></defs><g font-weight="400" font-size="76.19999695px" font-family="Hitchhiker" word-spacing="0"><path transform="scale(.26458)" d="M260.50586 1067.1934c-9.91863 4.6251-18.72342 10.9562-26.41602 18.9921-7.6926 8.036-13.91893 17.4008-18.67773 28.0938-5.10683 10.8553-8.20115 21.9372-9.2832 33.2461-.98919 11.0537-.08123 21.858 2.72265 32.4141l18.00391 67.2343c1.94649 7.3545 2.55341 15.016 1.82031 22.9844-.81424 7.7944-2.86965 15.4257-6.16601 22.8945-5.11855 11.2845-12.23069 20.1094-21.33789 26.4746l-50.4004-187.8164-21.66406 10.1016c1.94649 7.3544 2.4657 15.0579 1.5586 23.1074-.81424 7.7944-2.95737 15.4656-6.42774 23.0156-3.29636 7.4689-7.72953 14.0905-13.29883 19.8653-5.47642 5.5196-11.606144 9.8628-18.392575 13.0273l6.568359 23.6289c9.744616-4.544 18.417846-10.7055 26.017576-18.4863 7.6926-8.036 14.04464-17.3549 19.0586-27.9551l35.66406 133.041-51.16016 23.8555c-9.74462 4.544-18.46364 10.8352-26.15625 18.8711-7.692598 8.0359-14.092394 17.4806-19.199216 28.3359-5.013957 10.6002-8.060525 21.5545-9.142578 32.8633-.989188 11.0537-.128981 21.9876 2.582031 32.7988 3.059036 10.649 7.661373 19.8357 13.806641 27.5626 6.226411 7.9008 13.792292 13.9049 22.699222 18.0136 8.81406 4.3639 18.1624 6.4662 28.04492 6.3067 9.88252-.1595 19.69678-2.5107 29.4414-7.0547 9.91864-4.6252 18.72342-10.9563 26.41602-18.9922 7.6926-8.036 14.09239-17.4807 19.19922-28.336 4.83994-10.519 7.715-21.3914 8.62305-32.6191 1.16319-11.1348.30104-22.0688-2.58399-32.7988l-14.37109-53.9922c10.5437-2.3746 20.3492-1.333 29.41797 3.123.00053.0003.00142-.0002.00195 0 .4148.2232.82271.4533 1.22656.6895h.00195c2.02115 1.1821 3.90657 2.5274 5.66602 4.0195h.00195c6.33497 5.3729 11.04227 12.6674 14.62696 21.2442.39828.953.78306 1.9204 1.15429 2.9043 1.11405 2.952 2.10865 6.0384 3.00391 9.2363l19.88086 73.9844v-.0059l.00195.0059 24.01367-11.1973-4.55468-17.2598c-2.1089-7.7023-2.88919-15.2821-2.3418-22.7402.4662-7.632 1.65236-14.858 3.55664-21.6777 1.90428-6.8199 4.26565-13.1131 7.08594-18.877 2.99433-5.8451 5.83703-10.8783 8.52929-15.0996 2.86625-4.3024 5.32113-7.6702 7.36329-10.1055 2.21616-2.5163 3.45777-3.9429 3.72461-4.2793l-13.02735-13.6269c-.34802.1623-2.45402 3.3683-6.31836 9.6191-3.94552 6.0768-9.01605 14.0568-15.21289 23.9375-1.70589 2.7021-3.28563 5.4492-4.73633 8.2442-1.3576 2.5393-2.67468 5.1656-3.95117 7.8789-.38959-1.4602-.80675-2.8947-1.25-4.3067-.44326-1.4119-.91322-2.8002-1.41015-4.164-.49671-1.3632-1.02-2.7026-1.57032-4.0176v-.002c-.27505-.6572-.55725-1.3079-.8457-1.9531v-.0019c-.28846-.6452-.58487-1.2848-.88672-1.918v-.002c-.30186-.6331-.61052-1.2597-.92578-1.8808v-.002c-.31553-.6216-.63785-1.2361-.9668-1.8457-.65791-1.2192-1.34311-2.4149-2.05468-3.5859-.35578-.5855-.71871-1.1648-1.08789-1.7383-.02194-.0341-.04443-.0675-.06641-.1016-1.54618-2.5218-3.2434-4.91-5.10156-7.1582-6.22642-7.9008-13.79425-13.9069-22.70118-18.0156-5.42764-2.5534-10.87896-4.2472-16.35351-5.084 2.13503-2.6903 4.0159-5.4735 5.64062-8.3496 1.54359-3.0501 3.08728-6.1003 4.63086-9.1504 5.10683-10.8553 8.15535-21.8096 9.14453-32.8633 1.08206-11.3088.2199-22.2427-2.58398-32.7988l-18.00391-67.2324c-1.94649-7.3544-2.51345-14.9302-1.69922-22.7246.7331-7.9684 2.74857-15.6854 6.04493-23.1543 7.20762-15.4363 17.77052-26.4012 31.6914-32.8926l-6.30859-23.7519zm-74.3418 287.6152l14.59766 55.1582c1.94649 7.3544 2.51345 14.9283 1.69922 22.7227-.7331 7.9683-2.83432 15.7273-6.30469 23.2773-3.29636 7.4689-7.77144 14.0048-13.42187 19.6055-5.39529 5.6936-11.48506 10.1225-18.27149 13.2871-13.92089 6.4914-27.36999 6.7249-40.34766.7011-6.27425-3.006-11.65534-7.2764-16.14257-12.8105-4.23209-5.4413-7.32109-11.8389-9.267582-19.1934-1.772477-7.4355-2.339448-15.0094-1.699219-22.7226.733095-7.9684 2.836274-15.7293 6.306641-23.2793 3.29636-7.4689 7.68178-13.9629 13.1582-19.4824 5.5693-5.7748 11.74677-10.2437 18.53321-13.4082l51.16015-23.8555z" style="line-height:1.25;-inkscape-font-specification:Hitchhiker" letter-spacing="-.00264583px" fill="url(#b)"/><path d="M127.23928 108.57297q-1.13438 6.58254-3.8471 11.04245-2.74493 4.39084-5.48483 7.35003-2.70305 2.85792-5.13413 4.49601-2.36202 1.6059-3.78009 2.35123-1.98061 3.86628-4.92304 6.75175-2.94243 2.88547-6.671706 4.62446-4.005518 1.86781-8.065763 1.99551-4.023389.0264-7.691795-1.71014-3.599345-1.76877-6.171716-4.94128-2.503311-3.20471-3.680508-7.53226-1.108136-4.35976-.7109-8.91702.466298-4.58946 2.460865-8.96672 1.994568-4.37725 5.18569-7.63092 3.15892-3.32273 7.164438-5.19054 4.005517-1.8678 8.028905-1.89423 3.991185-.0955 7.65959 1.64107 3.59935 1.76877 6.17172 4.94128t3.68051 7.53226q1.23695 4.636.69693 9.42799 2.55097-2.28254 5.38785-6.29587 2.83688-4.01334 4.95636-10.4667zm-31.574488 30.19366q2.831487-1.32034 4.972738-3.57998 2.21031-2.29185 3.62447-5.38953 1.41416-3.09768 1.70511-6.26013.36001-3.19466-.47691-6.25157-.76786-3.08912-2.61779-5.25327-1.78087-2.19635-4.303171-3.45843-5.214919-2.52881-10.946952.14408-2.831487 1.32035-5.0418 3.61219-2.210313 2.29185-3.624473 5.38953-1.41416 3.09768-1.705108 6.26013-.290947 3.16246.476912 6.25158 1.706042 6.18288 6.920961 8.71169 2.522297 1.26208 5.353411 1.20307 2.831115-.059 5.662602-1.37936z" style="line-height:1.25;-inkscape-font-specification:Hitchhiker" letter-spacing="-.00264583px" fill="url(#c)" transform="translate(0 211.00002)"/><path d="M158.28723 95.692543q-.10592.133468-.98547 1.132149-.81048.966477-1.94803 2.674007-1.06848 1.675331-2.25685 3.995091-1.1193 2.28757-1.87506 4.99415-.75575 2.70658-.94078 5.73557-.21724 2.95993.61968 6.01684l-5.93921 2.76951-4.95246-18.37368q-.89667-3.36535-2.22632-5.85619-1.2928-2.592102-2.68257-4.130051-1.35292-1.639213-2.6325-2.21962-1.24272-.681671-2.07145-.295229t-1.45064 1.937608q-.65413 1.482106-.95866 3.894203-.26768 2.310829-.0799 5.418189.22468 3.0061 1.12136 6.37145l4.95245 18.37367-6.00827 2.80171-19.70856-73.457828 6.00827-2.801706 6.0606 22.733427q.18428-.506321.36391-.842317.14743-.405057.33172-.911377.93967-1.951569 1.9484-3.935342 1.07779-2.015976 2.21534-3.723506 1.1744-1.808794 2.50517-3.10196 1.36762-1.39443 2.95602-2.135111 2.69336-1.255936 5.18346-.06292.67199.359264 1.505 1.063832.8008.635506 1.38047 1.878598.54746 1.174031.73565 3.020054.15599 1.776963-.39258 4.386935-.54392 2.439647-1.53441 5.003455-1.02269 2.494746-1.99922 4.547579-.258.70885-.61727 1.380842-.35926.671992-.75073 1.274923 3.65016 1.156532 6.8022 5.572132 3.18889 4.314337 4.98224 11.045049l.89667 3.36536q.50669-1.07705 1.04559-2.08504.57575-1.10925 1.25277-2.18164 2.45938-3.921384 4.02525-6.33311 1.53366-2.480786 1.67179-2.545193zm-31.84126-17.4379q-1.8933 4.414112-1.73805 8.713744 1.63921-1.35292 3.01614-3.088 1.446-1.767283 2.39032-3.889177.76469-1.785898 1.5709-3.843384.87526-2.089691 1.33616-3.98616.18894-.676645.21686-1.698594.0279-1.021949-.40934-1.238438-.13346-.105918-.40971.0229-.3453.161018-.87024.658031-.48807.395749-1.19729 1.399083-.74143.934274-1.70865 2.646458-.96722 1.712183-2.1971 4.303541z" style="line-height:1.25;-inkscape-font-specification:Hitchhiker" letter-spacing="0" fill="url(#d)" transform="translate(0 211.00002)"/><path d="M210.05571 69.955033q-1.13438 6.582543-3.8471 11.042448-2.74493 4.390844-5.48483 7.350029-2.70305 2.857921-5.13413 4.496019-2.36203 1.605894-3.7801 2.351228-1.9806 3.866281-4.92303 6.751753-2.94243 2.88547-6.67171 4.62446-4.00552 1.8678-8.06575 1.9955-4.02339.0264-7.6918-1.71014-3.59934-1.76877-6.17171-4.94128-2.50332-3.204705-3.68051-7.53226-1.10814-4.359757-.7109-8.917016.4663-4.589463 2.46086-8.966718 1.99456-4.377251 5.18569-7.630922 3.15891-3.322731 7.16443-5.190534 4.00552-1.867804 8.02891-1.894238 3.99118-.09549 7.65959 1.641072 3.59935 1.768771 6.17172 4.941279 2.57237 3.172509 3.6805 7.532265 1.23696 4.635999.69694 9.427991 2.55097-2.28254 5.38785-6.295877 2.83688-4.013338 4.95636-10.466695zM178.48122 100.1487q2.83149-1.320344 4.97274-3.579987 2.21031-2.291847 3.62447-5.389525 1.41416-3.097678 1.70511-6.260136.36001-3.19466-.47691-6.251572-.76786-3.089115-2.61779-5.253263-1.78088-2.196352-4.30317-3.45843-5.21492-2.52881-10.94696.144081-2.83148 1.320344-5.04179 3.612191-2.21032 2.291847-3.62448 5.389525-1.41415 3.097674-1.7051 6.260132-.29094 3.162457.47691 6.251572 1.70605 6.182883 6.92097 8.711692 2.52228 1.26208 5.3534 1.20307 2.83111-.059 5.6626-1.37935z" style="line-height:1.25;-inkscape-font-specification:Hitchhiker" letter-spacing="0" fill="url(#e)" transform="translate(0 211.00002)"/><path d="M204.40042 50.479784q2.64329-3.166367 6.43734-6.02857 3.86312-2.894406 8.6283-5.116448l1.8531 7.039161q-3.59115 1.674583-6.40905 3.745287-2.74884 2.0385-4.60919 3.999004-1.86036 1.960505-2.75852 3.640485-.8291 1.647776-.61764 2.642175l7.80312 30.076382-6.07733 2.833909-10.39188-40.135597 6.07734-2.833909z" style="line-height:1.25;-inkscape-font-specification:Hitchhiker" letter-spacing="0" fill="url(#f)" transform="translate(0 211.00002)"/><path d="M283.028 35.927497q-1.13438 6.582543-3.84711 11.042448-2.74493 4.390844-5.48483 7.350029-2.70304 2.857921-5.13413 4.496019-2.36202 1.605893-3.78009 2.351228-1.98061 3.866281-4.92304 6.751752-2.94243 2.88547-6.6717 4.62446-4.00552 1.867804-8.06576 1.995502-4.02339.02643-7.6918-1.710133-3.59934-1.768771-6.17172-4.941279-2.50331-3.204712-3.6805-7.532265-1.10814-4.359757-.7109-8.917016.46629-4.589463 2.46086-8.966718 1.99457-4.377256 5.18569-7.630926 3.15892-3.322731 7.16444-5.190535 4.00552-1.867803 8.02891-1.894238 3.99118-.09549 7.65959 1.641073 3.59934 1.768771 6.17171 4.941279 2.57238 3.172509 3.68051 7.532265 1.23695 4.635999.69694 9.42799 2.55096-2.282539 5.38785-6.295877 2.83688-4.013337 4.95635-10.466694zm-31.57449 30.193667q2.83148-1.320344 4.97274-3.579987 2.21031-2.291847 3.62447-5.389525 1.41416-3.097678 1.70511-6.260136.36-3.194661-.47691-6.251572-.76786-3.089115-2.6178-5.253263-1.78087-2.196352-4.30317-3.45843-5.21491-2.52881-10.94695.144081-2.83149 1.320344-5.0418 3.612191t-3.62447 5.389525q-1.41416 3.097678-1.70511 6.260136-.29095 3.162457.47691 6.251572 1.70605 6.182883 6.92096 8.711693 2.5223 1.262078 5.35342 1.203069 2.83111-.05901 5.6626-1.379354z" style="line-height:1.25;-inkscape-font-specification:Hitchhiker" letter-spacing="0" fill="url(#g)" transform="translate(0 211.00002)"/><path d="M326.803 20.22321q-.17497.165671-1.08207.924966-.9393.690235-2.1688 2.020258-1.2295 1.330023-2.50983 3.272285-1.31252 1.873201-2.19709 4.303541-.84772 2.329076-1.09715 5.219944-.18038 2.858665.68409 6.154961l-6.35358 2.962724-5.26053-19.575253q-1.89461-6.767572-7.16928-9.604828-2.48544-1.363343-5.2797-1.405597-2.72519-.07446-5.3495 1.149275-2.34806 1.094919-4.30968 3.018567-1.89256 1.891443-3.2237 4.445944l8.70016 32.180405-6.42263 2.994922-10.55327-39.219562 4.35082-2.028821q3.83631-5.65646 9.56834-8.3293519 4.00552-1.8678037 8.09332-1.7561166 4.12465.010423 7.85281 2.0554365 3.69596 1.975953 6.25902 5.489111 2.59992 3.411894 3.83687 8.047893l.76786 3.089115q.50204-.906724.96722-1.712184.50204-.906724 1.03628-1.744387 1.28032-1.942262 2.61574-3.405753 1.37228-1.564754 2.49121-2.590985 1.11893-1.026231 1.88326-1.550794.76432-.524564.83338-.556767l1.51822 3.075526z" style="line-height:1.25;-inkscape-font-specification:Hitchhiker" letter-spacing="0" fill="url(#h)" transform="translate(0 211.00002)"/><path d="M375.01894-6.968586q-1.13438 6.58254258-3.8471 11.0424476-2.74493 4.3908443-5.48483 7.3500294-2.70304 2.857921-5.13413 4.496018-2.36202 1.605894-3.78009 2.351229-1.98061 3.86628-4.92304 6.751751-2.94243 2.885471-6.6717 4.624461-4.00552 1.867803-8.06577 1.995502-4.02339.02643-7.69179-1.710133-3.59935-1.768771-6.17172-4.94128-2.50331-3.204711-3.68051-7.532264-1.10813-4.359757-.7109-8.9170163.4663-4.5894628 2.46087-8.96671819 1.99457-4.37725531 5.18569-7.63092571 3.15892-3.3227308 7.16444-5.1905348 4.00551-1.867804 8.0289-1.894238 3.99119-.0955 7.65959 1.641073 3.59935 1.768771 6.17172 4.9412791 2.57237 3.1725083 3.68051 7.5322648 1.23695 4.6359991.69694 9.4279903 2.55096-2.2825395 5.38784-6.295877 2.83689-4.0133376 4.95636-10.4666943zm-31.57449 30.193667q2.83149-1.320344 4.97274-3.579987 2.21032-2.291847 3.62448-5.389525 1.41416-3.097679 1.7051-6.260136.36001-3.1946607-.47691-6.2515721-.76786-3.0891149-2.61779-5.2532633-1.78087-2.1963519-4.30317-3.4584301-5.21492-2.52881-10.94695.1440815-2.83149 1.320344-5.0418 3.6121907-2.21031 2.29184675-3.62447 5.3895251-1.41416 3.0976783-1.70511 6.2601356-.29095 3.1624576.47691 6.2515726 1.70604 6.182883 6.92096 8.711693 2.5223 1.262078 5.35341 1.203069 2.83112-.05901 5.6626-1.379354z" style="line-height:1.25;-inkscape-font-specification:Hitchhiker" letter-spacing="0" fill="url(#i)" transform="translate(0 211.00002)"/><path d="M389.95733-4.097416q.49199 1.9565945-.41548 3.97722418-.90746 2.02062962-2.7721 2.89012452-1.79558.8372913-3.51242.040395-1.71683-.7968962-2.20882-2.75349075-.52419-2.02565515.38327-4.04628485.97653-2.0528332 2.77211-2.8901245 1.86464-.8694948 3.51241-.040395 1.71684.7968963 2.24103 2.8225515z" style="line-height:1.25;-inkscape-font-specification:Hitchhiker" letter-spacing="0" fill="url(#j)" transform="translate(0 211.00002)"/><path d="M453.24062-38.987851q-.10592.133468-1.15114.95717-1.00836.722439-2.34378 2.185929-1.36762 1.394431-2.78606 3.401099-1.41844 2.006669-2.44114 4.501416-1.05489 2.425686-1.34119 5.417819-.31849 2.923072.54597 6.219369l-6.35358 2.962723-5.26053-19.575253 6.35358-2.962723.89202 3.535682q.64482-1.141456 1.25277-2.181647.64482-1.141456 1.4231-2.176994 1.41844-2.006668 2.82292-3.502363 1.44134-1.596958 2.62933-2.655392 1.22485-1.159699 1.95697-1.753323.80118-.625827.87024-.658031l1.48136 3.17679zm-21.13145 6.070272q-.95642-3.673804-2.35048-6.302762-1.3572-2.730223-2.81138-4.406293-1.48639-1.745131-2.79817-2.394599-1.34399-.718528-2.24177-.299882-.89779.418645-1.62563 2.103279-.69098 1.58337-1.00017 4.165792-.27233 2.481158-.0892 5.75884.22003 3.176418 1.17645 6.850222l5.26053 19.5752525-6.42264 2.9949266-5.26053-19.5752531q-.95642-3.673803-2.35048-6.302762-1.3572-2.730222-2.81139-4.406293-1.48638-1.74513-2.79816-2.394598-1.34399-.718528-2.24178-.299883-.82872.386442-1.55656 2.071076-.69098 1.58337-1.00017 4.165792-.27233 2.481158-.0892 5.75884.22003 3.176418 1.17645 6.850222l.21612.824074L407.53542.56959055l-6.42264 2.99492655-5.04441-18.7511781-.21612-.824075-5.87668-21.978414 6.42264-2.994927.36783 1.510027q.90282-1.850305 2.20138-3.212531 1.29856-1.362227 2.88696-2.102908 2.83148-1.320344 5.67153-.458668 2.84005.861675 5.39418 3.454148.76079-4.138242 2.5478-7.157552 1.78701-3.019311 4.54944-4.307451 2.6243-1.223734 5.33089-.467976 2.67438.686696 5.13189 3.071988 2.49438 2.284027 4.60622 6.09167 2.07964 3.738583 3.37634 8.683028z" style="line-height:1.25;-inkscape-font-specification:Hitchhiker" letter-spacing="0" fill="url(#k)" transform="translate(0 211.00002)"/><path d="M491.97623-61.422589q.36281 2.941686-.10275 5.00848-.42869 1.96553-1.24886 4.533991-.7511 2.536258-2.05469 5.330144-5.67954 11.981003-16.52206 17.036954-3.93646 1.8356-7.92764 1.931095-3.99118.09549-7.59053-1.67328-3.6362-1.667507-6.10731-4.803158-2.50331-3.204712-3.6483-7.463204-.55639-2.094716-1.20903-5.657948-.58357-3.595436.21407-7.834942.32278-1.832062 1.16584-3.990813.84306-2.158751 2.36741-4.298883 1.59342-2.17234 4.07067-4.252351 2.47725-2.080012 6.13746-3.786798 9.73755-4.540695 16.71436 2.127101 1.42663 1.436685 2.50796 3.034387 1.08133 1.597702 1.82201 3.186097.70848 1.519335 1.15002 2.826833.44154 1.307499.62546 2.062513l.86912 3.125972-29.41983 13.718691q1.94152 3.80299 5.71119 5.576414 2.49008 1.193022 5.25214 1.166216 2.76205-.02681 5.52448-1.314946 8.56352-3.993236 13.01318-13.382881 1.11931-2.287565 1.75519-4.349706.67273-2.163404 1.02306-3.756081.31812-1.661738.41511-2.71589.097-1.054152.13849-1.325741zm-40.21285 6.980724q-.32277 1.832058-.23583 3.641224.0547 1.740105.35349 3.282336l23.54967-10.981394q-.63941-1.551537-1.78515-3.287361-1.17794-1.804884-2.95453-2.910227-1.73973-1.206606-4.11963-1.442082-2.31083-.267679-5.3495 1.149276-8.28728 3.864421-9.45852 10.548228z" style="line-height:1.25;-inkscape-font-specification:Hitchhiker" letter-spacing="0" fill="url(#l)" transform="translate(0 211.00002)"/></g></svg>