<svg xmlns="http://www.w3.org/2000/svg" xmlns:xlink="http://www.w3.org/1999/xlink" width="93.557434" height="59.155991" viewBox="0 0 24.753738 15.651689"><defs><linearGradient id="d"><stop offset="0" stop-color="#41ff89"/><stop offset="1" stop-color="#e6ff41"/></linearGradient><linearGradient id="c"><stop offset="0" stop-color="#209eff"/><stop offset="1" stop-color="#20fdff"/></linearGradient><linearGradient id="b"><stop offset="0" stop-color="#209eff"/><stop offset="1" stop-color="#ffadfa"/></linearGradient><linearGradient xlink:href="#a" id="h" x1="-345.88013" y1="-75.611504" x2="-343.20615" y2="-73.304024" gradientUnits="userSpaceOnUse" gradientTransform="translate(358.48 367.5)"/><linearGradient id="a"><stop offset="0" stop-color="#20fdff"/><stop offset="1" stop-color="#20fdff" stop-opacity="0"/></linearGradient><linearGradient xlink:href="#b" id="k" x1="5.0400238" y1="290.78589" x2="12.439574" y2="290.78589" gradientUnits="userSpaceOnUse"/><linearGradient xlink:href="#b" id="j" x1="0" y1="290.78589" x2="7.399549" y2="290.78589" gradientUnits="userSpaceOnUse"/><linearGradient xlink:href="#c" id="i" x1="2.5203676" y1="290.78583" x2="7.5602841" y2="290.78589" gradientUnits="userSpaceOnUse"/><linearGradient xlink:href="#d" id="f" x1="16.377205" y1="296.99997" x2="16.377205" y2="284.57196" gradientUnits="userSpaceOnUse"/><linearGradient xlink:href="#d" id="g" x1="11.336677" y1="290.91458" x2="11.336677" y2="297" gradientUnits="userSpaceOnUse"/><clipPath clipPathUnits="userSpaceOnUse" id="e"><path d="M19.49 1.96c.02.73-.3 1.35-.64 1.58-.21.17-.31.43-.16.69.18.28.59.32.85.03.38-.38.58-1.16.01-2.3zm.9-1.8l-.02.07a3.16 3.16 0 011.37 1.51c.96.57 1.84-1.55-1.35-1.58zm2.67 1.74l-.04.05c.51.63.62 1.51.58 2.1.73 1.02 2.24-1.02-.54-2.15zm-2.78-.42v3.55c0 .69.25.83 1.04.83h.72c1.27 0 1.62-.2 1.62-.61 0-.18-.07-.29-.33-.4l-.02-.95h-.07c-.16.45-.29.78-.38.92-.06.07-.13.1-.23.1l-.49.01h-.65c-.22 0-.3-.04-.3-.18V1.76c.16-.02.22-.09.23-.17z" style="line-height:0;-inkscape-font-specification:'Noto Serif CJK JP Heavy'" font-weight="900" font-size="6.3499999px" font-family="Noto Serif CJK JP" letter-spacing="0" word-spacing="0" stroke-width=".26458335"/></clipPath></defs><g clip-path="url(#e)"><path fill="#e6ff41" d="M25.64 2.58l2.43 1.96L21.3 6.4l-2.44-1.97z"/><path fill="#41ff89" d="M24.42 1.6l2.43 1.96-6.77 1.86-2.43-1.97z"/><path fill="#20fdff" d="M23.2.6l2.44 1.98-6.77 1.85-2.43-1.96z"/><path fill="#209eff" d="M21.99-.37l2.43 1.96-6.77 1.86-2.43-1.97z"/><path fill="#ffadfa" d="M21.99-.37L23.2.6l-6.76 1.86-1.22-.99z"/></g><path style="line-height:0;-inkscape-font-specification:'Noto Serif CJK JP Heavy'" d="M22.22 9.37h.44c.07.68.18 1.24.35 1.7l-.79.13zm1.15-2.23v.93h-1.15v-.93zm-1.15 1.1h1.15v.95h-1.15zm1.15 1.13v.27h.15c.07 0 .15-.01.22-.03-.11.23-.3.57-.46.83-.23-.3-.42-.66-.54-1.07zm-3.73 1.7V9.83h.5v1.24zm.5-2.63v1.21h-.5V8.44zm0-1.31v1.13h-.5V7.13zm3.74 2.45c.2-.05.37-.12.38-.15V7.29a.45.45 0 00.27-.14l-.83-.63-.4.44h-1l-.93-.34v4.7l-.38.05v-4.1c.13-.03.21-.09.26-.14l-.78-.62-.4.44h-.4l-.85-.36v5.53h.14c.36 0 .68-.2.68-.3v-.57h.5v.48h.13c.22 0 .5-.1.64-.18l.45.89a.26.26 0 00.18-.18c.71-.43 1.2-.76 1.53-1.03.22.5.52.89.96 1.2.1-.49.37-.81.71-.91l.01-.07c-.5-.15-.96-.44-1.32-.84.35-.12.8-.28 1.03-.4.14.04.21.02.24-.03z" font-weight="900" font-size="6.3499999px" font-family="Noto Serif CJK JP" letter-spacing="0" word-spacing="0" fill="#ff3c81"/><g font-size="3.52777767px" letter-spacing="0" word-spacing="0" stroke-width=".26458335"><g aria-label="ME" style="line-height:1.25;-inkscape-font-specification:'Noto Sans Display Thin';text-align:center" font-weight="700" font-family="Noto Serif Display" text-anchor="middle" fill="#ff3c81"><path d="M18.8 15.62v-.04h.25q.08 0 .13-.03.05-.04.05-.18v-2.02q0-.14-.05-.18-.05-.04-.13-.04h-.25v-.03h.96l.73 1.92.6-1.92h.87v.03h-.15q-.08 0-.13.04t-.05.2v1.98q0 .15.05.2.05.03.13.03h.15v.04h-1.13v-.04h.03q.12 0 .17-.03.06-.04.06-.17v-2.15l-.75 2.39h-.17l-.9-2.37v2.1q0 .15.07.2.07.03.2.03h.13v.04zM22.15 15.62v-.04h.15q.07 0 .13-.03.05-.04.05-.18v-2q0-.16-.05-.2-.05-.04-.13-.04h-.15v-.03h1.95l.02.65h-.03l-.01-.12q-.03-.27-.16-.38-.12-.12-.4-.12h-.48v1.15h.84v.04h-.84v1.26h.6q.28 0 .4-.11.13-.11.16-.39v-.11h.04l-.02.65z" style="-inkscape-font-specification:'Noto Serif Display Bold';text-align:center"/></g><g aria-label="KoKoRoNo." style="line-height:1.25;-inkscape-font-specification:'Noto Sans Display Thin'" font-weight="100" font-family="Noto Sans Display" fill="#fff"><path d="M3.66 15.62h-.12l-.96-1.4-.34.36v1.04h-.1V13.1h.1v1.37l.08-.08.1-.1 1.08-1.2h.14l-.99 1.06z" style="-inkscape-font-specification:'Noto Sans Display Thin'" fill="#209eff"/><path d="M5.37 14.69q0 .27-.08.49-.08.22-.25.34-.17.13-.43.13-.25 0-.42-.13-.17-.12-.25-.34-.09-.22-.09-.5 0-.44.2-.7.21-.26.58-.26.26 0 .43.13.16.13.23.35.08.22.08.49zm-1.42 0q0 .26.07.45.08.2.22.31.15.11.37.11.23 0 .37-.1.15-.12.22-.32t.07-.45q0-.25-.06-.45t-.2-.31q-.15-.12-.38-.12-.32 0-.5.23t-.18.65z" style="-inkscape-font-specification:'Noto Sans Display Thin'"/><path d="M7.43 15.62h-.12l-.96-1.4-.34.36v1.04h-.1V13.1h.1v1.37l.08-.08.1-.1 1.08-1.2h.14l-.99 1.06z" style="-inkscape-font-specification:'Noto Sans Display Thin'" fill="#209eff"/><path d="M9.14 14.69q0 .27-.08.49-.08.22-.25.34-.17.13-.43.13-.25 0-.42-.13-.17-.12-.25-.34-.09-.22-.09-.5 0-.44.2-.7.21-.26.58-.26.26 0 .43.13.16.13.23.35.08.22.08.49zm-1.42 0q0 .26.07.45.08.2.22.31.15.11.37.11.23 0 .37-.1.15-.12.22-.32t.07-.45q0-.25-.06-.45-.07-.2-.21-.31-.14-.12-.37-.12-.33 0-.5.23-.18.23-.18.65z" style="-inkscape-font-specification:'Noto Sans Display Thin'"/><path d="M10.21 13.1q.28 0 .46.06.2.05.29.2.1.14.1.4 0 .28-.15.46-.14.17-.38.24l.65 1.16h-.12l-.64-1.13h-.64v1.13h-.1V13.1zm-.02.09h-.41v1.2h.53q.29 0 .47-.15.18-.17.18-.47 0-.23-.09-.35-.08-.13-.25-.18-.17-.05-.43-.05z" style="-inkscape-font-specification:'Noto Sans Display Thin'" fill="#20fdff"/><path d="M12.97 14.69q0 .27-.08.49-.08.22-.25.34-.17.13-.43.13-.25 0-.42-.13-.17-.12-.25-.34-.09-.22-.09-.5 0-.44.2-.7.21-.26.58-.26.26 0 .43.13.16.13.23.35.08.22.08.49zm-1.42 0q0 .26.07.45.08.2.22.31.15.11.37.11.23 0 .37-.1.15-.12.22-.32t.07-.45q0-.25-.06-.45t-.2-.31q-.15-.12-.38-.12-.32 0-.5.23t-.18.65z" style="-inkscape-font-specification:'Noto Sans Display Thin'"/><path d="M15.15 15.62h-.08l-1.46-2.31v2.31h-.1V13.1h.08l1.46 2.3v-.27V13.1h.1z" style="-inkscape-font-specification:'Noto Sans Display Thin'" fill="#41ff89"/><path d="M17.2 14.69q0 .27-.08.49-.08.22-.25.34-.17.13-.43.13-.25 0-.42-.13-.17-.12-.25-.34-.09-.22-.09-.5 0-.44.2-.7.21-.26.58-.26.27 0 .43.13.16.13.23.35.08.22.08.49zm-1.42 0q0 .26.07.45.08.2.22.31.15.11.37.11.23 0 .37-.1.15-.12.22-.32t.07-.45q0-.25-.06-.45t-.2-.31q-.15-.12-.38-.12-.32 0-.5.23t-.18.65zM17.68 15.54q0-.05.02-.08t.07-.03q.06 0 .07.03.02.03.02.08 0 .04-.02.07-.01.03-.07.03-.05 0-.07-.03-.02-.03-.02-.07z" style="-inkscape-font-specification:'Noto Sans Display Thin'"/></g></g><path transform="translate(0 -284.57)" fill="url(#f)" d="M15.27 284.57h2.21V297h-2.2z"/><path transform="translate(0 -284.57)" fill="url(#g)" d="M10.23 290.91h2.2V297h-2.2z"/><path d="M14.96 12.43h2.52L12.6 6.2h-2.52z" fill="#41ff89"/><g><path transform="translate(0 -284.57)" d="M14.96 297h2.52l-4.88-6.21h-2.52z" fill="url(#h)"/><path d="M14.96 0h2.52L12.6 6.21h-2.52z" fill="#20fdff"/></g><g><path d="M12.6 290.79H2.52" fill="none" stroke="url(#i)" stroke-width="2.19604158" transform="translate(0 -284.57)"/><path d="M4.88 284.57L0 290.8 4.88 297H7.4l-4.88-6.21 4.88-6.22z" fill="url(#j)" transform="translate(0 -284.57)"/><path d="M9.92 284.57l-4.88 6.22L9.92 297h2.52l-4.88-6.21 4.88-6.22z" fill="url(#k)" transform="translate(0 -284.57)"/></g></svg>