<svg xmlns="http://www.w3.org/2000/svg" xmlns:xlink="http://www.w3.org/1999/xlink" width="93.54" height="47.02" viewBox="0 0 24.75 12.44"><defs><linearGradient id="d"><stop offset="0" stop-color="#41ff89"/><stop offset="1" stop-color="#e6ff41"/></linearGradient><linearGradient id="c"><stop offset="0" stop-color="#209eff"/><stop offset="1" stop-color="#20fdff"/></linearGradient><linearGradient id="b"><stop offset="0" stop-color="#209eff"/><stop offset="1" stop-color="#ffadfa"/></linearGradient><linearGradient xlink:href="#a" id="h" x1="-345.88" y1="-75.61" x2="-343.21" y2="-73.3" gradientUnits="userSpaceOnUse" gradientTransform="translate(358.48 367.5)"/><linearGradient id="a"><stop offset="0" stop-color="#20fdff"/><stop offset="1" stop-color="#20fdff" stop-opacity="0"/></linearGradient><linearGradient xlink:href="#b" id="k" x1="5.04" y1="290.79" x2="12.44" y2="290.79" gradientUnits="userSpaceOnUse"/><linearGradient xlink:href="#b" id="j" x1="0" y1="290.79" x2="7.4" y2="290.79" gradientUnits="userSpaceOnUse"/><linearGradient xlink:href="#c" id="i" x1="2.52" y1="290.79" x2="7.56" y2="290.79" gradientUnits="userSpaceOnUse"/><linearGradient xlink:href="#d" id="f" x1="16.38" y1="297" x2="16.38" y2="284.57" gradientUnits="userSpaceOnUse" gradientTransform="translate(0 -284.57)"/><linearGradient xlink:href="#d" id="g" x1="11.34" y1="290.91" x2="11.34" y2="297" gradientUnits="userSpaceOnUse" gradientTransform="translate(0 -284.57)"/><clipPath clipPathUnits="userSpaceOnUse" id="e"><path d="M19.49 1.96c.02.73-.3 1.35-.64 1.58-.21.17-.31.43-.16.69.18.28.59.32.85.03.38-.38.58-1.16.01-2.3zm.9-1.8l-.02.07a3.16 3.16 0 011.37 1.51c.96.57 1.84-1.55-1.35-1.58zm2.67 1.74l-.04.05c.51.63.62 1.51.58 2.1.73 1.02 2.24-1.02-.54-2.15zm-2.78-.42v3.55c0 .69.25.83 1.04.83h.72c1.27 0 1.62-.2 1.62-.61 0-.18-.07-.29-.33-.4l-.02-.95h-.07c-.16.45-.29.78-.38.92a.28.28 0 01-.23.1l-.49.01h-.65c-.22 0-.3-.04-.3-.18V1.76c.16-.02.22-.09.23-.17z" style="line-height:0;-inkscape-font-specification:'Noto Serif CJK JP Heavy'" font-weight="900" font-size="6.35" letter-spacing="0" word-spacing="0" font-family="Noto Serif CJK JP" stroke-width=".26"/></clipPath></defs><g clip-path="url(#e)"><path d="M25.64 2.58l2.43 1.96L21.3 6.4l-2.44-1.97z" fill="#e6ff41"/><path d="M24.42 1.6l2.43 1.96-6.77 1.86-2.43-1.97z" fill="#41ff89"/><path d="M23.2.6l2.44 1.98-6.77 1.85-2.43-1.96z" fill="#20fdff"/><path d="M21.99-.37l2.43 1.96-6.77 1.86-2.43-1.97z" fill="#209eff"/><path d="M21.99-.37L23.2.6l-6.76 1.86-1.22-.99z" fill="#ffadfa"/></g><path style="line-height:0;-inkscape-font-specification:'Noto Serif CJK JP Heavy'" d="M22.22 9.37h.44c.07.68.18 1.24.35 1.7l-.79.13zm1.15-2.23v.93h-1.15v-.93zm-1.15 1.1h1.15v.95h-1.15zm1.15 1.13v.27h.15c.07 0 .15-.01.22-.03-.11.23-.3.57-.46.83-.23-.3-.42-.66-.54-1.07zm-3.73 1.7V9.83h.5v1.24zm.5-2.63v1.21h-.5V8.44zm0-1.31v1.13h-.5V7.13zm3.74 2.45c.2-.05.37-.12.38-.15V7.29a.45.45 0 00.27-.14l-.83-.63-.4.44h-1l-.93-.34v4.7l-.38.05v-4.1a.52.52 0 00.26-.14l-.78-.62-.4.44h-.4l-.85-.36v5.53h.14c.36 0 .68-.2.68-.3v-.57h.5v.48h.13c.22 0 .5-.1.64-.18l.45.89a.26.26 0 00.18-.18c.71-.43 1.2-.76 1.53-1.03.22.5.52.89.96 1.2.1-.49.37-.81.71-.91l.01-.07a2.9 2.9 0 01-1.32-.84c.35-.12.8-.28 1.03-.4.14.04.21.02.24-.03z" font-weight="900" font-size="6.35" letter-spacing="0" word-spacing="0" font-family="Noto Serif CJK JP" fill="#ff3c81"/><path d="M15.27 0h2.21v12.43h-2.2z" fill="url(#f)"/><path d="M10.23 6.34h2.2v6.09h-2.2z" fill="url(#g)"/><path d="M14.96 12.43h2.52L12.6 6.2h-2.52z" fill="#41ff89"/><path transform="translate(0 -284.57)" d="M14.96 297h2.52l-4.88-6.21h-2.52z" fill="url(#h)"/><path d="M14.96 0h2.52L12.6 6.21h-2.52z" fill="#20fdff"/><g><path d="M12.6 290.79H2.52" transform="translate(0 -284.57)" fill="none" stroke="url(#i)" stroke-width="2.2"/><path d="M4.88 284.57L0 290.8l4.88 6.2H7.4l-4.88-6.21 4.88-6.22z" transform="translate(0 -284.57)" fill="url(#j)"/><path d="M9.92 284.57l-4.88 6.22L9.92 297h2.52l-4.88-6.21 4.88-6.22z" transform="translate(0 -284.57)" fill="url(#k)"/></g></svg>